/* XPM */
static char *_ab9a7a9dd141a1d9f876e42b6a5e69a[] = {
/* columns rows colors chars-per-pixel */
"64 64 202 2 ",
"   c #584937",
".  c #654E3F",
"X  c #724136",
"o  c #6B5A48",
"O  c #705F44",
"+  c #786759",
"@  c #746B64",
"#  c #B51B24",
"$  c #B4272F",
"%  c #BD232C",
"&  c #AE2C31",
"*  c #AD2D3C",
"=  c #B82737",
"-  c #BC2A34",
";  c #BE2D3A",
":  c #A8353D",
">  c #BB323B",
",  c #B83439",
"<  c #DA212F",
"1  c #C62637",
"2  c #CD2436",
"3  c #C42C35",
"4  c #CC2A34",
"5  c #CC2B3B",
"6  c #D32434",
"7  c #DD2532",
"8  c #D32B36",
"9  c #DC2A36",
"0  c #D6263B",
"q  c #DF2538",
"w  c #D42B3D",
"e  c #DB2C3D",
"r  c #C5343D",
"t  c #CB323C",
"y  c #D9333E",
"u  c #E6202E",
"i  c #E32635",
"p  c #EC2735",
"a  c #E42937",
"s  c #EF2935",
"d  c #E4263C",
"f  c #EC273B",
"g  c #E42A3B",
"h  c #EE2939",
"j  c #F02936",
"k  c #F02738",
"l  c #F02939",
"z  c #E2313B",
"x  c #EB323F",
"c  c #BE2F44",
"v  c #AD3C40",
"b  c #BE3341",
"n  c #B23B43",
"m  c #B13A49",
"M  c #BD3C4A",
"N  c #C92D41",
"B  c #D62E41",
"V  c #D92D40",
"C  c #CA3243",
"Z  c #C83944",
"A  c #C33A4A",
"S  c #D43346",
"D  c #DA3143",
"F  c #CE3E52",
"G  c #DA3A51",
"H  c #E02B41",
"J  c #EE2D42",
"K  c #EB3241",
"L  c #EB3847",
"P  c #EE3A4A",
"I  c #F33441",
"U  c #F53D4A",
"Y  c #A44146",
"T  c #B2474A",
"R  c #BB424C",
"E  c #B64B51",
"W  c #AB5557",
"Q  c #B85557",
"!  c #AC5C66",
"~  c #BB5B65",
"^  c #877767",
"/  c #907A6B",
"(  c #BB6162",
")  c #CE4149",
"_  c #C54857",
"`  c #CB4B55",
"'  c #CB4C5B",
"]  c #D44451",
"[  c #CF5459",
"{  c #D15B5F",
"}  c #EA4956",
"|  c #F84C55",
" . c #E9565C",
".. c #F3535C",
"X. c #FA545E",
"o. c #F3595F",
"O. c #C85965",
"+. c #DB5365",
"@. c #F84C60",
"#. c #EB5A62",
"$. c #F55A62",
"%. c #FD5C63",
"&. c #FF5C6B",
"*. c #C66467",
"=. c #D96673",
"-. c #CF7474",
";. c #D57072",
":. c #FB636A",
">. c #FA6469",
",. c #E36374",
"<. c #EE7279",
"1. c #6C9745",
"2. c #74974A",
"3. c #6EA645",
"4. c #73AC45",
"5. c #74A34C",
"6. c #78A54A",
"7. c #73AE4A",
"8. c #74B14C",
"9. c #7BA453",
"0. c #78A757",
"q. c #7AAA51",
"w. c #76B450",
"e. c #7FA766",
"r. c #85A65F",
"t. c #81B355",
"y. c #869E68",
"u. c #8CAD67",
"i. c #8DB168",
"p. c #8EAB70",
"a. c #8FA179",
"s. c #92AE74",
"d. c #96B476",
"f. c #DB7B81",
"g. c #AC9181",
"h. c #9CB885",
"j. c #ABAC8A",
"k. c #AEB18B",
"l. c #BEB0A0",
"z. c #F3838C",
"x. c #F8818F",
"c. c #E48A92",
"v. c #F08E93",
"b. c #F78A98",
"n. c #EA969B",
"m. c #E29DA2",
"M. c #FF98A5",
"N. c #C8B9AC",
"B. c #CABFB2",
"V. c #EDA9A7",
"C. c #FDA3A6",
"Z. c #F6A7A8",
"A. c #FFA3AB",
"S. c #FFADAD",
"D. c #E4AAB1",
"F. c #FFA3B1",
"G. c #EDBDB2",
"H. c #F6BBB6",
"J. c #FCBABA",
"K. c #AAC886",
"L. c #B6CF99",
"P. c #BBD097",
"I. c #BECEA0",
"U. c #BED7A9",
"Y. c #CCE5B1",
"T. c #D4E2B9",
"R. c #FDB6C0",
"E. c #FFBCC7",
"W. c #D7CEC6",
"Q. c #DFD4CA",
"!. c #FFC4C6",
"~. c #FFC9CD",
"^. c #FFD2CE",
"/. c #E0DBD8",
"(. c #FFD2D2",
"). c #FFD6DB",
"_. c #FFDBDA",
"`. c #D6E7C6",
"'. c #E0EECF",
"]. c #E0F8CE",
"[. c #FFE1DD",
"{. c #FAE9DD",
"}. c #E9F3D5",
"|. c #E8F2DB",
" X c #F5FCDA",
".X c #FDFFDC",
"XX c #FFDCE4",
"oX c #FFE3E5",
"OX c #FDEBE6",
"+X c #FFE5EB",
"@X c #FFECEC",
"#X c #EFFCE0",
"$X c #F4FFE3",
"%X c #FAFFE4",
"&X c #FFF3ED",
"*X c #F6F8EC",
"=X c #FBFFEC",
"-X c #FFEDF3",
";X c #FFF3F3",
":X c #FDFBF4",
">X c #FFF6F9",
",X c #FFFEFE",
/* pixels */
",X,X,X,X,X,X,X,X,X,X,X,X,X,X,X,X,X,X,X,X,X,X,X,X,X,X,X,X,X,X,X,X,X,X,X,X,X,X,X,X,X,X,X,X,X,X,X,X,X,X,X,X,X,X,X,X,X,X,X,X,X,X,X,X",
",X,X,X,X,X,X,X,X,X,X,X,X,X,X,X,X,X,X,X,X,X,X,X,X,X,X,X,X,X,X,X,X,X,X,X,X,X,X,X,X,X,X,X,X,X,X,X,X,X,X,X,X,X,X,X,X,X,X,X,X,X,X,X,X",
",X,X,X,X,X,X,X,X,X,X,X,X,X,X,X,X,X,X,X,X,X,X,X,X,X,X,X,X,X,X,X,X,X,X,X,X,X,X,X,X,X,X,X,X,X,X,X,X,X,X,X,X,X,X,X,X,X,X,X,X,X,X,X,X",
",X,X,X,X,X,X,X,X,X,X,X,X,X,X,X,X,X,X,X,X,X,X,X,X,X,X,X,X,X,X,X,X,X,X,X,X,X,X,X,X,X,X,X,X,X,X,X,X,X,X,X,X,X,X,X,X,X,X,X,X,X,X,X,X",
",X,X,X,X,X,X,X,X,X,X,X,X,X,X,X,X,X,X,X,X,X,X,X,X,X,X,X,X,X,X,X,X,X,X,X,X,X,X,X,X,X,X,X,X,X,X,X,X,X,X,X,X,X,X,X,X,X,X,X,X,X,X,X,X",
",X,X,X,X,X,X,X,X,X,X,X,X,X,X,X,X,X,X,X,X,X,X,X,X,X,X,X,X,X,X,X,X,X,X,X,X,X,X,X,X,X,X,X,X,X,X,X,X,X,X,X,X,X,X,X,X,X,X,X,X,X,X,X,X",
",X,X,X,X,X,X,X,X,X,X,X,X,X,X,X,X,X,X,X,X,X,X,X,X,X,X,X,X,X,X,X,X,X,X,X,X,X,X,X,X,X,X,X,X,X,X,X,X,X,X,X,X,X,X,X,X,X,X,X,X,X,X,X,X",
",X,X,X,X,X,X,X,X,X,X,X,X,X,X,X,X,X,X,X,X,X,X,X,X,X,X,X,X,X,X,X,X,X,X,X,X,X,X,X,X,X,X,X,X,X,X,X,X,X,X,X,X,X,X,X,X,X,X,X,X,X,X,X,X",
",X,X,X,X,X,X,X,X,X,X,X,X,X,X,X,X,X,X,X,X,X,X,X,X,X,X,X,X,X,X,X,X,X,X,X,X,X,X,X,X,X,X,X,X,X,X,X,X,X,X,X,X,X,X,X,X,X,X,X,X,X,X,X,X",
",X,X,X,X,X,X,X,X,X,X,X,X,X,X,X,X,X,X,X:X:X:X:X:X,X,X,X,X,X,X,X,X,X,X,X,X,X,X,X,X,X,X,X,X,X,X,X,X,X,X,X,X,X,X,X,X,X,X,X,X,X,X,X,X",
",X,X,X,X,X,X,X,X,X,X,X,X,X,X,X,X,X:X|.'.$X%X%X%X=X=X:X:X,X,X,X,X,X,X,X,X,X,X,X,X,X,X,X,X,X,X,X,X,X,X,X,X,X,X,X,X,X,X,X,X,X,X,X,X",
",X,X,X,X,X,X,X,X,X,X,X,X,X,X,X,X:X:X#Xa.y.s.s.p.s.h.U.`.|.*X,X,X,X,X,X,X,X,X,X,X,X,X,X,X,X,X,X,X,X,X,X,X,X,X,X,X,X,X,X,X,X,X,X,X",
",X,X,X,X,X,X,X,X,X,X,X,X,X,X,X,X,X:X=XT.2.6.5.q.q.5.5.0.d.].:X,X:X:X:X,X:X:X:X,X:X:X,X,X,X,X,X,X,X,X,X,X,X,X,X,X,X,X,X,X,X,X,X,X",
",X,X,X,X,X,X,X,X,X,X,X,X,X,X,X,X,X,X:X}.K.2.q.4.4.7.8.7.q.e.#X:X,X,X,X,X,X,X,X,X,X,X,X,X,X,X,X,X,X,X,X,X,X,X,X,X,X,X,X,X,X,X,X,X",
",X,X,X,X,X,X,X,X,X,X,X,X,X,X,X,X,X,X,X=X$XL.1.6.4.7.8.w.8.1.h.$X,X:X:XB.^ + @ /.,X,X,X,X,X,X,X,X,X,X,X,X,X,X,X,X,X,X,X,X,X,X,X,X",
",X,X,X,X,X,X,X,X,X,X,X,X,X,X,X,X,X,X,X:X:X$XY.r.0.q.5.3.3.q.0.Y.*X,XN.  o l.W.:X,X,X,X,X,X,X,X,X,X,X,X,X,X,X,X,X,X,X,X,X,X,X,X,X",
",X,X,X,X,X,X,X,X,X,X,X,X,X,X,X,X,X,X,X,X,X:X=X}.I.d.r.9.6.t.5.K.%XQ.. / OX:X,X,X,X,X,X,X,X,X,X,X,X,X,X,X,X,X,X,X,X,X,X,X,X,X,X,X",
",X,X,X,X,X,X,X,X,X,X,X,X,X,X,X,X,X,X,X,X,X,X,X:X=X XT.P.u.5.q.i. X+ + {.*X:X,X,X,X,X,X>X,X,X,X,X,X,X,X,X,X,X,X,X,X,X,X,X,X,X,X,X",
",X,X,X,X,X,X,X,X,X,X,X,X,X,X,X,X,X,X,X,X,X>X,X,X>X:X:X=X XU.e.p.j.  Q.,X,X,X,X>X,X,X,X,X,X,X,X,X,X,X,X,X,X,X,X,X,X,X,X,X,X,X,X,X",
",X,X,X,X,X,X,X,X,X,X,X,X,X,X,X,X,X>X,X,X>X@X-X-XXX).).oX&X%X.Xk.O g.;X;XoXoXXXXXoX-X>X>X,X,X,X,X,X,X,X,X,X,X,X,X,X,X,X,X,X,X,X,X",
",X,X,X,X,X,X,X,X,X,X,X,X,X,X,X,X,X>X,X-X+XF.,.] C Z ) ` ;.Z.[.G.X H.J.f.E R A A _ ;.Z.-X>X,X,X,X,X,X,X,X,X,X,X,X,X,X,X,X,X,X,X,X",
",X,X,X,X,X,X,X,X,X,X,X,X,X,X,X,X,X>X-XE.O.F w d i i 7 8 5 b m Y Y : : > 3 2 6 0 B = * ~ R.-X,X,X,X,X,X,X,X,X,X,X,X,X,X,X,X,X,X,X",
",X,X,X,X,X,X,X,X,X,X,X,X,X,X,X,X>X+XM.c G G H d f f d i q 9 8 5 5 t r t e g f d w 5 1 b * c.;X>X>X,X,X,X,X,X,X,X,X,X,X,X,X,X,X,X",
",X,X,X,X,X,X,X,X,X,X,X,X,X,X,X>X;Xn.= } &.@.P J J f f f f h p p g g e e d f f f H V w w S * n.-X>X,X,X,X,X,X,X,X,X,X,X,X,X,X,X,X",
",X,X,X,X,X,X,X,X,X,X,X,X,X,X,X>XC.> #.:.:.$.U J f f h h h s s s s s g h h h l f h d e w w C M A.-X,X,X,X,X,X,X,X,X,X,X,X,X,X,X,X",
",X,X,X,X,X,X,X,X,X,X,X,X,X>X>XoX[ } >.>.:...K p p h h s s s s s s s s s s s h l l f d e w B 5 ' XX,X,X,X,X,X,X,X,X,X,X,X,X,X,X,X",
",X,X,X,X,X,X,X,X,X,X,X,X,X>X;Xn.> :.:.$.:.} a p p s s s s s s s s s s s s s s j l h f d g w D * D.>X,X,X,X,X,X,X,X,X,X,X,X,X,X,X",
",X,X,X,X,X,X,X,X,X,X,X,X:X;X-X'  .:.o.o.%.P p p s s s s s s s s s s s s s s s s s j f f d d 0 A ! -X>X,X,X,X,X,X,X,X,X,X,X,X,X,X",
",X,X,X,X,X,X,X,X,X,X,X,X:X;XJ.M #.:.:.%.z g s s s s s s s s s s s s s s s s s s s s j p f f d N m R.>X,X,X,X,X,X,X,X,X,X,X,X,X,X",
",X,X,X,X,X,X,X,X,X,X,X:X:X-Xb.C ..X...| g s s s s s s s s s s s s s s s s s s s s s s j p f f e N b.;X,X,X,X,X,X,X,X,X,X,X,X,X,X",
",X,X,X,X,X,X,X,X,X,X,X,X:X-X,.0 L x x h s s s s s s s s s s s s s s s s s s s s s s s s j p f d 2 ,.-X,X,X,X,X,X,X,X,X,X,X,X,X,X",
",X,X,X,X,X,X,X,X,X,X,X,X,X-X+.H g < i p s s s s s s s s s s s s s s s s s s s s s s s s s s p g 2 _ +X>X,X,X,X,X,X,X,X,X,X,X,X,X",
",X,X,X,X,X,X,X,X,X,X,X,X,X;X' D X.| x s s j s s s s s s s s s s s s s s s s s s s s s s s s s g 6 _ oX>X,X,X,X,X,X,X,X,X,X,X,X,X",
",X,X,X,X,X,X,X,X,X,X,X,X,X;X` D &.%.U l j l h s s s s s s s s s s s s s s s s s s s s s j s s i w M XX>X,X,X,X,X,X,X,X,X,X,X,X,X",
",X,X,X,X,X,X,X,X,X,X,X,X,X;X_ D X.| x j j l h j s s s s s s s s s s s s s s s j s s s j j s p a w M XX>X,X,X,X,X,X,X,X,X,X,X,X,X",
",X,X,X,X,X,X,X,X,X,X,X,X,X;X' w L g u k j l l j s s s s s s s s s s s s s s s j s s s j j s p a w R XX>X,X,X,X,X,X,X,X,X,X,X,X,X",
",X,X,X,X,X,X,X,X,X,X,X,X,X;X=.w g s k k j l l j j s s s s s s s s s s s h h s s s s s j j s g g 2 _ oX>X,X,X,X,X,X,X,X,X,X,X,X,X",
",X,X,X,X,X,X,X,X,X,X,X,X,X>Xx.5 g k k k j l l j j s s s s s s s s s s s h h h s j j s j j s g g 1 =.@X,X,X,X,X,X,X,X,X,X,X,X,X,X",
",X,X,X,X,X,X,X,X,X,X,X,X,X>XF.5 g k k k j l l j j s s s s s s s s s s s h h h j j j j s j h g e 1 x.-X,X,X,X,X,X,X,X,X,X,X,X,X,X",
",X,X,X,X,X,X,X,X,X,X,X,X,X>XE.; g k k k l l l l j s s s h h h s s s s s h h l l j j s s s p g e = M.;X,X,X,X,X,X,X,X,X,X,X,X,X,X",
",X,X,X,X,X,X,X,X,X,X,X,X,X>X).O.e j j k l l l l h s s s s s s s j s s h h l l l l j s h h i i w n ~.>X,X,X,X,X,X,X,X,X,X,X,X,X,X",
",X,X,X,X,X,X,X,X,X,X,X,X,X,X@Xc.4 h s s s h h h h h h h h h h h l h h h h l l l l h h h g i i t ~ oX>X,X,X,X,X,X,X,X,X,X,X,X,X,X",
",X,X,X,X,X,X,X,X,X,X,X,X,X,X:XH.] a h s s h h h h h h h h l h h l l h h h h l l h h g h g a 9 r m.>X>X,X,X,X,X,X,X,X,X,X,X,X,X,X",
",X,X,X,X,X,X,X,X,X,X,X,X,X,X,X_.<.8 h s p h h h l h h h h l h h h h h h h h l l h g g g g 9 8 n oX,X,X,X,X,X,X,X,X,X,X,X,X,X,X,X",
",X,X,X,X,X,X,X,X,X,X,X,X,X,X,XoXC.t g p p h h h l l h h h l l h h h h h l l l h h p a a 9 8 r f.-X,X,X,X,X,X,X,X,X,X,X,X,X,X,X,X",
",X,X,X,X,X,X,X,X,X,X,X,X,X,X,X&X[.{ e h h s l l l l l h l l h h h h h h h h h h g i a 9 8 r T ).>X,X,X,X,X,X,X,X,X,X,X,X,X,X,X,X",
",X,X,X,X,X,X,X,X,X,X,X,X,X,X,X:X&XJ.t h h s l l l l l l l l l l l h h h h h h h g a 9 9 y & V.;X>X,X,X,X,X,X,X,X,X,X,X,X,X,X,X,X",
",X,X,X,X,X,X,X,X,X,X,X,X,X,X,X,X:X@Xz.% g h l p k k l l l l l l h h h h g g g g g a 9 w > *.;X,X,X,X,X,X,X,X,X,X,X,X,X,X,X,X,X,X",
",X,X,X,X,X,X,X,X,X,X,X,X,X,X,X,X,X:XOX*.t I h h h f f f h h f f h h h h g a a i g < z ; W oX:X,X,X,X,X,X,X,X,X,X,X,X,X,X,X,X,X,X",
",X,X,X,X,X,X,X,X,X,X,X,X,X,X,X,X,X,X:X@XQ # g h h f f h g g g g g g a a a i 7 7 9 y - E (.>X,X,X,X,X,X,X,X,X,X,X,X,X,X,X,X,X,X,X",
",X,X,X,X,X,X,X,X,X,X,X,X,X,X,X,X,X,X,X:X^.W % x K K K x g g i 7 7 7 7 7 7 9 9 9 6 $ W (.>X,X,X,X,X,X,X,X,X,X,X,X,X,X,X,X,X,X,X,X",
",X,X,X,X,X,X,X,X,X,X,X,X,X,X,X,X,X,X,X,X:X@X*.- 3 5 w y w 4 3 3 3 3 4 4 4 8 t r , ;.[.:X,X,X,X,X,X,X,X,X,X,X,X,X,X,X,X,X,X,X,X,X",
",X,X,X,X,X,X,X,X,X,X,X,X,X,X,X,X,X,X,X,X:X:X&XZ.Q R Z ; > n *.n.S.-.n & , & v ( H.;X;X,X,X,X,X,X,X,X,X,X,X,X,X,X,X,X,X,X,X,X,X,X",
",X,X,X,X,X,X,X,X,X,X,X,X,X,X,X,X,X,X,X,X,X,X:X&XOX~.C.z.n.!.@X&X&X&X(.Z.v.S.(.&X:X:X,X,X,X,X,X,X,X,X,X,X,X,X,X,X,X,X,X,X,X,X,X,X",
",X,X,X,X,X,X,X,X,X,X,X,X,X,X,X,X,X,X,X,X,X,X,X:X;X&X;X;X;X;X&X&X&X:X:X&X&X;X:X:X:X,X,X,X,X,X,X,X,X,X,X,X,X,X,X,X,X,X,X,X,X,X,X,X",
",X,X,X,X,X,X,X,X,X,X,X,X,X,X,X,X,X,X,X,X,X,X,X,X,X,X,X:X,X,X,X,X,X,X:X:X,X,X:X:X:X,X,X,X,X,X,X,X,X,X,X,X,X,X,X,X,X,X,X,X,X,X,X,X",
",X,X,X,X,X,X,X,X,X,X,X,X,X,X,X,X,X,X,X,X,X,X,X,X,X,X,X,X,X,X,X,X,X,X,X,X,X,X,X,X,X,X,X,X,X,X,X,X,X,X,X,X,X,X,X,X,X,X,X,X,X,X,X,X",
",X,X,X,X,X,X,X,X,X,X,X,X,X,X,X,X,X,X,X,X,X,X,X,X,X,X,X,X,X,X,X,X,X,X,X,X,X,X,X,X,X,X,X,X,X,X,X,X,X,X,X,X,X,X,X,X,X,X,X,X,X,X,X,X",
",X,X,X,X,X,X,X,X,X,X,X,X,X,X,X,X,X,X,X,X,X,X,X,X,X,X,X,X,X,X,X,X,X,X,X,X,X,X,X,X,X,X,X,X,X,X,X,X,X,X,X,X,X,X,X,X,X,X,X,X,X,X,X,X",
",X,X,X,X,X,X,X,X,X,X,X,X,X,X,X,X,X,X,X,X,X,X,X,X,X,X,X,X,X,X,X,X,X,X,X,X,X,X,X,X,X,X,X,X,X,X,X,X,X,X,X,X,X,X,X,X,X,X,X,X,X,X,X,X",
",X,X,X,X,X,X,X,X,X,X,X,X,X,X,X,X,X,X,X,X,X,X,X,X,X,X,X,X,X,X,X,X,X,X,X,X,X,X,X,X,X,X,X,X,X,X,X,X,X,X,X,X,X,X,X,X,X,X,X,X,X,X,X,X",
",X,X,X,X,X,X,X,X,X,X,X,X,X,X,X,X,X,X,X,X,X,X,X,X,X,X,X,X,X,X,X,X,X,X,X,X,X,X,X,X,X,X,X,X,X,X,X,X,X,X,X,X,X,X,X,X,X,X,X,X,X,X,X,X",
",X,X,X,X,X,X,X,X,X,X,X,X,X,X,X,X,X,X,X,X,X,X,X,X,X,X,X,X,X,X,X,X,X,X,X,X,X,X,X,X,X,X,X,X,X,X,X,X,X,X,X,X,X,X,X,X,X,X,X,X,X,X,X,X",
",X,X,X,X,X,X,X,X,X,X,X,X,X,X,X,X,X,X,X,X,X,X,X,X,X,X,X,X,X,X,X,X,X,X,X,X,X,X,X,X,X,X,X,X,X,X,X,X,X,X,X,X,X,X,X,X,X,X,X,X,X,X,X,X"
};
