/* XPM */
static char *_fbdcdc68a5d4501d606af8144a0eb74ODJWN4GetL5rgVBU[] = {
/* columns rows colors chars-per-pixel */
"64 64 192 2 ",
"   c #3E530F",
".  c #415613",
"X  c #465C15",
"o  c #495E16",
"O  c #4A5518",
"+  c #4A5E1A",
"@  c #476013",
"#  c #4A6215",
"$  c #4F6A16",
"%  c #4D631A",
"&  c #4F6A19",
"*  c #506B17",
"=  c #52651C",
"-  c #536D1B",
";  c #586C1E",
":  c #56721C",
">  c #5A761E",
",  c #5B781D",
"<  c #526423",
"1  c #5A6726",
"2  c #556C22",
"3  c #5A6C23",
"4  c #57662C",
"5  c #5B6C2C",
"6  c #577122",
"7  c #5C7421",
"8  c #5E7B23",
"9  c #5C732C",
"0  c #5F6C39",
"q  c #5D7231",
"w  c #606E27",
"e  c #61672D",
"r  c #627526",
"t  c #617A25",
"y  c #63752A",
"u  c #68742F",
"i  c #637B2B",
"p  c #6A7B2F",
"a  c #626A30",
"s  c #606E38",
"d  c #637433",
"f  c #6B7534",
"g  c #657D33",
"h  c #6D7E32",
"j  c #65733A",
"k  c #6B763A",
"l  c #667B39",
"z  c #6B7D3D",
"x  c #717C36",
"c  c #73763D",
"v  c #737B3D",
"b  c #646E40",
"n  c #6F7141",
"m  c #677841",
"M  c #6B7E41",
"N  c #747C43",
"B  c #797D44",
"V  c #737F48",
"C  c #7B7E4D",
"Z  c #64802B",
"A  c #68832D",
"S  c #6B8434",
"D  c #6C823D",
"F  c #718236",
"G  c #74823C",
"H  c #728B3D",
"J  c #6E8241",
"K  c #728443",
"L  c #7C8344",
"P  c #748A45",
"I  c #7A8C45",
"U  c #758349",
"Y  c #7C834C",
"T  c #768B48",
"R  c #798E4A",
"E  c #799147",
"W  c #7B914A",
"Q  c #7D8356",
"!  c #7D8D57",
"~  c #808647",
"^  c #82844D",
"/  c #828A4B",
"(  c #88904E",
")  c #848650",
"_  c #848D54",
"`  c #8B8D54",
"'  c #85885F",
"]  c #8D8D5A",
"[  c #918F5D",
"{  c #899453",
"}  c #8C9255",
"|  c #87955A",
" . c #8E915B",
".. c #8B9B5C",
"X. c #929E57",
"o. c #94935C",
"O. c #879060",
"+. c #8E9B68",
"@. c #959361",
"#. c #999565",
"$. c #959B63",
"%. c #9D9B65",
"&. c #979569",
"*. c #919C68",
"=. c #9E9B6A",
"-. c #A29E6D",
";. c #A39F73",
":. c #92A266",
">. c #9DA064",
",. c #9FA06F",
"<. c #9BA474",
"1. c #9DA973",
"2. c #9FA87D",
"3. c #9EB070",
"4. c #A4A26D",
"5. c #A8AB6D",
"6. c #AAA673",
"7. c #A3AB73",
"8. c #A9A870",
"9. c #ADA67B",
"0. c #ADA97A",
"q. c #B1A67D",
"w. c #B3AB7D",
"e. c #ABB87A",
"r. c #A5A686",
"t. c #AFAC83",
"y. c #B5AC82",
"u. c #B9AE84",
"i. c #BEAF8A",
"p. c #ACB586",
"a. c #B7B083",
"s. c #BBB286",
"d. c #B9BC86",
"f. c #B7B089",
"g. c #BDB389",
"h. c #B5BD8A",
"j. c #B5BD92",
"k. c #C1B58C",
"l. c #C5BB8E",
"z. c #C5B692",
"x. c #C9B795",
"c. c #C6BA95",
"v. c #CABA95",
"b. c #CEBC9A",
"n. c #CEBD9C",
"m. c #D2B79F",
"M. c #D0BB9C",
"N. c #D2B89F",
"B. c #D2B7A0",
"V. c #D2B9A1",
"C. c #D2BAA1",
"Z. c #B4C384",
"A. c #B7C093",
"S. c #BBC594",
"D. c #BCC993",
"F. c #CBC19A",
"G. c #C4CB99",
"H. c #D0C09B",
"J. c #CBD59E",
"K. c #C8C5A4",
"L. c #CECAA5",
"P. c #D3C2A5",
"I. c #D9C0A7",
"U. c #D7C5AA",
"Y. c #DBC4AC",
"T. c #CBD3A6",
"R. c #CED8A7",
"E. c #D2DBAC",
"W. c #DECAB3",
"Q. c #DEDFB6",
"!. c #DDD6B8",
"~. c #E1CCB3",
"^. c #E3D6B7",
"/. c #E5D4BC",
"(. c #EBD4BD",
"). c #E5DDBA",
"_. c #E9D9BE",
"`. c #DAE4AF",
"'. c #DEE4B9",
"]. c #E0E6B9",
"[. c #ECD7C2",
"{. c #EBDBC3",
"}. c #E9E4C5",
"|. c #E9EDC6",
" X c #EEEDCF",
".X c #F3E4CC",
"XX c #F2F8CF",
"oX c #EEEAD1",
"OX c #F7EAD3",
"+X c #F5F6D4",
"@X c #F9F1D4",
"#X c #FBF5DB",
/* pixels */
"N.N.N.N.N.N.N.N.N.N.N.N.N.N.N.N.N.N.N.N.N.N.N.m.m.N.B.m.N.N.b.x.z.x.b.N.N.m.m.N.N.m.N.N.N.N.N.N.N.N.N.N.N.N.N.N.N.N.N.N.N.N.N.N.",
"N.N.N.N.N.N.N.N.N.N.N.N.N.N.N.N.N.N.N.N.N.N.N.m.m.N.N.b.z.y.6.=.o.@.-.9.u.x.N.N.N.m.N.N.N.N.N.N.m.m.m.N.N.N.N.N.N.N.N.N.N.N.N.N.",
"N.N.N.N.N.N.N.N.N.N.N.N.N.N.N.N.N.N.N.N.m.m.m.m.N.N.z.9. .U G K l d l d K $.w.v.N.N.m.N.N.V.N.N.m.m.m.N.N.N.N.N.N.N.N.N.N.N.N.N.",
"N.N.N.N.N.N.N.N.N.N.N.N.N.N.N.N.N.N.N.m.N.V.N.N.n.y.o.L z K W P z g S S y y L %.k.N.m.m.N.N.N.N.m.m.m.N.N.N.N.N.N.N.N.N.N.N.N.N.",
"N.N.N.N.N.N.N.N.N.N.N.N.N.N.N.N.N.N.N.m.V.V.V.b.0._ P D J R W K M z S S g 9 9 z ` s.b.N.m.N.N.N.N.N.N.N.N.N.N.N.N.N.N.N.N.N.N.N.",
"N.N.N.N.N.N.N.N.N.N.N.N.N.N.N.m.m.N.N.m.V.(.{.K.Q U J D P W I J M z g S S 9 9 9 y / k.N.m.N.N.N.N.N.N.N.N.N.N.N.N.N.N.N.N.N.N.N.",
"N.N.N.N.N.N.m.m.m.m.m.m.m.m.N.N.N.m.N.m.N.U.{.+XA.m z J R W I J M l g S S g 9 6 - y o.v.N.N.N.m.m.N.N.N.N.N.N.N.N.N.N.N.N.N.N.N.",
"N.m.m.N.N.m.V.B.V.N.m.m.m.m.m.m.N.m.N.m.N.b.f.h.*.M z D W W T J M d i S S S 9 = & > x q.N.m.N.N.N.N.N.N.N.N.N.N.N.N.N.N.N.N.N.N.",
"m.m.m.N.B.N.N.N.n.n.n.n.N.N.m.m.m.N.m.N.N.z. .f z M M K W W P D l q 9 S S S 6 % # : r o.b.m.m.N.N.m.m.N.N.N.N.N.N.N.N.N.N.N.N.N.",
"m.N.N.m.N.N.i.=.@.] ] &.g.b.N.V.m.m.m.N.b.q._ W K M J P W W P l q 9 9 S S S - # # : 7 L g.N.B.N.N.m.m.N.N.N.N.N.N.N.N.m.m.N.N.N.",
"N.N.N.N.b.9.^ z D K M k C 9.b.N.N.N.m.N.n.-./ W J M J P W W D q 9 9 9 S S i & # # * 7 G q.N.N.N.N.m.m.N.N.m.m.m.N.m.m.N.N.N.m.N.",
"N.N.m.N.y.Y D J D R W K 5 C n.Y.Y.V.N.N.n.=.I E J M D P I H g 9 9 9 9 S Z 7 $ # # * 7 x 6.N.B.N.N.N.m.m.m.m.m.N.N.N.m.N.N.N.m.m.",
"N.N.N.z. .z T P D K R R 5 K.@X.X~.m.m.N.n.%.G H D z l D S S g 9 9 9 9 i 7 : % X # * 7 h 6.N.B.m.m.m.m.m.m.m.N.N.N.N.m.m.B.N.m.m.",
"N.N.N.w.U J R T M J R I l p.L.U.b.B.m.N.n.%.G S 9 9 9 g S S g 9 9 5 2 2 D R U z = * 7 h 6.N.B.m.m.N.m.m.m.m.m.m.m.m.m.N.N.N.m.m.",
"m.N.x.=.N J R P J z P H S d N q.N.m.B.N.n.%.G S 9 9 9 g S S g 9 5 % % + D.'.T.:.2 * 7 h 6.N.V.N.m.m.N.N.N.N.m.m.B.B.m.m.N.N.N.V.",
"B.N.k. .M J R T J D g S S g 1 @.n.m.B.N.n.%.G S 9 9 9 A S S i = % # % < 3.h.| 5 # * 7 h 6.N.V.N.N.N.m.N.N.b.b.b.b.b.N.N.B.m.N.N.",
"B.N.s.^ z J R I D d 9 g S 8 = ^ n.m.B.N.n.#.F S 9 9 9 i A i 6 # # # % 6 i i = X # * 7 h 6.N.m.N.N.N.m.b.x.y.#.] [ -.u.b.N.N.N.m.",
"m.N.a.N l D P P g 9 9 r t > * B b.N.B.N.n.o.y 8 - = & : , , - @ # # % : , > * # # * 7 h 6.N.N.N.m.m.b.u.Y z z K K z v @.k.N.m.m.",
"B.N.a.v 9 9 S D i 9 2 * 6 > - c v.N.B.N.n.o.r > % # # : > , - @ # # % : > > * # # * 7 h 6.N.V.V.V.b.y.n d D P W P D D k ] k.N.N.",
"B.N.a.N 5 9 g S i 2 % # - > ; k v.N.B.N.n.o.9 & # # # : , , - # # # % : > , * # # $ > h 6.N.V./.{.!.r.b q T W R J J T K k @.z.N.",
"B.N.a.B 3 2 9 i 7 % # # % > : f k.N.V.b.n.9.*.! % o # : , , - @ # # % : , 7 * # # * 7 h 6.N.m.Y..X#X X2.q W W P M J T R z N 0.b.",
"B.N.g.L = # * 7 7 * # # # : 6 u q.N.V.V.^.).}.E.4 o # - , , - @ # # % : , > $ # # * 7 h 6.N.B.m.P.F.Q.O.z E W K M J R R J M  .x.",
"B.N.z.] < o % : , : # # # $ 6 y =.N.V.V.P.9.7...< o # - , , - @ # # % : > > $ # @ $ 7 h 6.N.B.N.x.C j d D H T J M J I R J z Y s.",
"m.m.b.t.Q d X - , 7 $ @ # # : r o.n.N.b.n.o.u 7 % o # : > , - @ # # % : , > * o 4 9 y x 6.N.B.N.a.a 1 S S S D z M J I W J D U 6.",
"m.V.W..X+X<.  * > > : # @ # * r ` n.N.N.n.o.r > % # # - > , - @ # # % : > > * s T.S.7.{ 6.N.N.b.4.1 2 S S S 9 l z K R W J z K #.",
"N.I.(._.L.Y X # : > > & # # % 3 ~ v.N.N.n.o.r , % # # : , , - @ # # % : , > * j R.G.e.$.0.N.m.n.o.= - t S g 9 q d D E W J D M ] ",
"N.V.B.b.6.f % @ * > , > % # # * v w.N.b.n.o.r > % o # : , , - @ # # % : > > & o z y 3 h 6.N.m.n.) = : , t 9 9 9 9 g H P z l d ) ",
"N.N.m.N.v.o.2 # # - , , : # # # y %.b.N.n.o.r , % # # : > , - @ # # % : , > & # X $ 7 h 6.N.N.n.B * > > : % 2 9 9 g S S d 9 9 ^ ",
"N.N.m.m.N.u.L = # % : > > - # @ % L a.n.n.o.r , # # # : > , - @ # # % : , > $ # # * , h 6.N.m.n.v - > > - # % 2 9 S S g 9 9 9 ) ",
"N.N.m.m.N.b.6.x % # % d 9 7 - # # 2 } l.F.o.r > # # # : , , - @ # # % : , > $ # # * , h 6.N.N.n.f - , > % # # # - i A i 9 9 d ` ",
"N.N.m.N.N.N.b.4.k < J D.| 7 > - # # 3  .d.o.r > % # # : , , - @ # # % : , > $ # # * 7 h 6.N.N.c.f : > - # # # # - , 8 2 < = 9 [ ",
"N.N.m.N.N.N.N.x.6.C G.|.1.6 , > : $ # ; I I t > % # # : , , - @ # # % : , > $ # # $ 7 h 6.N.N.y.u : > $ # # # $ > , , % o # 3 =.",
"N.N.m.N.N.N.N.N.b.c.).t.a = - > , > - $ * t t > % # # - , , - @ # # % : , > * # # * 7 h 6.N.n.-.y > : # # # # - > , : % o . 5 w.",
"N.N.N.m.m.m.m.N.N.Y.P.y.@.v 3 ; ; 6 7 9 7 y t > % # # - , , - # # # % : , , * # # * 7 h 6.N.n.o.r > * # # # % > , > * o < +.' z.",
"N.N.N.N.N.N.V.m.m.N.N.b.x.k.u.6.%.o.] o.8.( r > # # # : , , - @ # # % : , > $ # # * 7 h 6.N.n.` r : # # # # - > , : % X *.|.oX/.",
"N.N.N.N.N.N.V.N.N.m.N.N.N.N.N.N.v.v.v.x.v.o.r > # # # : , , - @ # # % : , > $ # # * 7 h 6.N.v.~ 9 & # # # % > > , - # X _ L..XOX",
"N.N.N.N.N.N.N.N.N.N.N.N.N.N.N.N.N.N.N.N.n.o.r > # # # : , , - @ # # # : , , * # # * , h 6.N.w.G 3 # # # # : > , > % # # = ` x.P.",
"N.N.N.N.N.N.N.N.N.N.N.N.m.m.m.N.m.m.m.N.b.o.r , % # # : > , - @ # # # : , > * # # * , h 6.H.4.p = # # # - > , > - # # * y 6.b.N.",
"N.N.N.N.N.N.N.N.N.N.N.N.m.m.m.m.N.N.N.N.b.o.r > % # # : > , - @ # # # : , > * # # * , h 8.l.` ; # # # $ > , , : # @ # 3 } z.V.m.",
"N.N.N.N.N.N.N.N.N.N.N.N.m.m.m.m.N.N.N.N.n.o.r > % # # : , , - @ # # # : , > $ # # * 7 h 5.5.f % # # $ > > > > * # # - L w.b.N.m.",
"N.N.N.N.N.N.N.N.N.N.N.N.N.N.N.N.m.V.V.V.P.] 9 > % # # : > , - @ # # % : , > $ # # * 7 S X.I = # # % : 7 6 6 % # # - h 6.b.N.N.m.",
"N.N.N.N.N.N.N.N.N.V.V.N.N.N.N.m.N.V.Y.{.@X0.i , % # # - , 7 - @ # # # : , > $ # # * 7 i S ; # @ $ : > 6 V <.j X * p 4.x.N.N.N.N.",
"N.N.N.N.N.N.N.N.N.N.V.N.m.m.m.m.N.N.V.~.).=.r , % # # : > , - # # # % : , > * # # & 7 7 - # # * > > > 3 E.+Xj.4 x 4.x.N.N.m.m.m.",
"N.N.N.N.N.N.N.N.N.N.N.N.m.m.m.m.m.N.N.b.b.] r > % # # : , , - @ # # % : , > $ # # - : $ # % - > , , : = *.Q.].&.9.v.N.m.N.N.m.m.",
"N.N.N.N.N.N.N.N.N.N.N.N.m.m.m.N.N.m.m.N.n.o.r > # o + < = 2 - @ # # % : , > * # # $ $ $ - : , , > - % = e ;.^.W.b.N.m.N.N.N.V.N.",
"N.N.N.N.N.N.N.N.N.N.N.N.N.N.m.m.m.N.m.N.n.o.r > % d +.S.h.d - @ o # % : , , * # # - : > > 7 : - ; 2 u / 4.u.P.Y.V.m.m.m.N.B.B.m.",
"N.N.N.N.N.N.N.N.N.N.N.N.N.N.N.m.m.N.m.N.n.o.r > 2 ..D.`.J.K - @ o # % : , > $ # # * > 7 G L ~ ] =.0.s.z.b.N.N.N.N.m.m.m.N.N.N.N.",
"N.N.N.N.N.N.N.N.N.N.N.N.N.m.N.N.m.N.m.N.n.o.r > % % < d z 2 - @ # # % : , > $ # # * , h 5.v.x.x.b.b.N.N.B.B.m.m.N.m.m.m.N.N.N.m.",
"N.N.N.N.N.N.N.N.N.N.N.N.N.N.N.N.N.N.m.N.n.o.r > # # # - 7 7 - # # # % : , > $ # # * , h 6.N.N.b.N.N.N.m.N.N.N.N.N.N.N.N.N.N.N.N.",
"N.N.N.N.N.N.N.N.N.N.N.N.N.N.N.N.N.N.m.N.n.o.r > # # # : , , - @ # # % : , > * # # * , h 6.N.m.N.m.m.m.N.N.N.N.N.N.N.N.N.N.N.N.N.",
"N.N.N.N.N.N.N.N.N.N.N.N.N.N.N.N.N.N.m.N.n.o.r > # # # : , , - @ # # % : , , * # # * , h 6.N.V.N.m.m.m.N.N.N.N.N.N.N.N.N.N.N.N.N.",
"N.N.N.N.N.N.N.N.N.N.N.N.N.N.N.N.N.N.m.N.n.o.r > # # # : , , - @ # # % : , > * # # * 7 y ,.P.V.V.N.m.m.N.N.N.N.N.N.N.N.N.N.N.N.N.",
"N.N.N.N.N.N.N.N.N.N.N.N.N.N.N.N.N.N.m.N.n.o.r > # # # : , , - # # # % : , > $ # # $ 7 G G.@X[.Y.N.m.N.N.N.N.N.N.N.N.N.N.N.N.N.N.",
"N.N.N.N.N.N.N.N.N.N.N.N.N.N.N.N.N.N.m.N.n.o.r > # # # : , , - # # # % : , > $ # # $ > S d._.Y.N.N.m.N.N.N.N.N.N.N.N.N.N.N.N.N.N.",
"N.N.N.N.N.N.N.N.N.N.N.N.N.N.N.N.N.N.m.N.b.o.r > # # # : , , - @ # # % : , > $ # # $ 7 p 4.b.V.N.N.m.N.N.N.N.N.N.N.N.N.N.N.N.N.N.",
"N.N.N.N.N.N.N.N.N.N.N.N.N.N.N.N.N.N.m.N.b.o.r > # # # : , , - @ # # % : , > $ # # $ 7 h 6.N.m.N.m.N.N.N.N.N.N.N.N.N.N.N.N.N.N.N.",
"N.N.N.N.N.N.N.N.N.N.N.N.N.N.N.N.N.N.m.N.n.o.r > # # # : , , - @ # # % : , > * # # $ > h 6.N.m.N.N.N.N.N.N.N.N.N.N.N.N.N.N.N.N.N.",
"N.N.N.N.N.N.N.N.N.N.N.N.N.N.N.N.N.N.m.N.n.o.r > # # # : , , - @ # # % : , , * o % * 7 h 6.N.m.N.N.N.N.N.N.N.N.N.N.N.N.N.N.N.N.N.",
"N.N.N.N.N.N.N.N.N.N.N.N.N.N.N.N.N.N.m.N.n.o.r > # # # : , , - o # # # : , , 2 0 ! U K G 6.N.m.N.N.N.N.N.N.N.N.N.N.N.N.N.N.N.N.N.",
"N.N.N.N.N.N.N.N.N.N.N.N.N.N.N.N.N.N.m.N.n.o.r > # # # : , , - o # # % : , > 3 p.XX].Z.{ 6.N.m.N.m.m.N.N.N.N.N.N.N.N.N.N.N.N.N.N.",
"N.N.N.N.N.N.N.N.N.N.N.N.N.N.N.N.N.N.m.N.n.o.r > % # # - , , - # # # % : , 7 2 U 7...h h 6.N.m.N.m.m.N.N.N.N.N.N.N.N.N.N.N.N.N.N.",
"N.N.N.N.N.N.N.N.N.N.N.N.N.N.N.N.N.N.m.N.n.@.u 7 % o o 2 r r ; o o o % 3 7 9 = O O = w x 6.N.m.m.m.N.N.N.N.N.N.N.N.N.N.N.N.N.N.N.",
"N.N.N.N.N.N.N.N.N.N.N.N.N.N.N.N.N.N.m.N.N.y.-.>. .]  .$.>.>.$.` ] `  .$.>.%.o.]  .o.%.4.k.N.m.m.m.N.N.N.N.N.N.N.N.N.N.N.N.N.N.N.",
"N.N.N.N.N.N.N.N.N.N.N.N.N.N.N.N.N.N.m.N.N.N.b.v.x.x.x.x.v.v.v.x.x.x.x.x.v.v.x.x.x.x.v.b.N.N.m.N.m.m.N.N.N.N.N.N.N.N.N.N.N.N.N.N."
};
