/* XPM */
static char *ca281d94313344c0b63d856c3e14223blqJp1ndPWLG5PRkw[] = {
/* columns rows colors chars-per-pixel */
"64 64 173 2 ",
"   c #A6272E",
".  c #AB282F",
"X  c #B1262E",
"o  c #B1282F",
"O  c #AE342F",
"+  c #B0322F",
"@  c #AF2730",
"#  c #A62A32",
"$  c #AC2A31",
"%  c #B22B32",
"&  c #AC3134",
"*  c #AC343B",
"=  c #AD383F",
"-  c #B33331",
";  c #B93832",
":  c #B2363D",
">  c #B8373E",
",  c #B3393E",
"<  c #AE3D43",
"1  c #B43A41",
"2  c #B93D44",
"3  c #AE444B",
"4  c #B24047",
"5  c #B2464B",
"6  c #BA464D",
"7  c #B4484E",
"8  c #BC494F",
"9  c #B44E54",
"0  c #BD4B51",
"q  c #B45156",
"w  c #BC5056",
"e  c #B6555A",
"r  c #BB545A",
"t  c #B65A5F",
"y  c #B9595E",
"u  c #B65D62",
"i  c #BA5D62",
"p  c #AE676B",
"a  c #BC6267",
"s  c #BC656A",
"d  c #B26A6E",
"f  c #B6686C",
"g  c #B66D71",
"h  c #BB6E72",
"j  c #AA7A7F",
"k  c #BD7074",
"l  c #B3777B",
"z  c #BE7579",
"x  c #B97B7F",
"c  c #C0565C",
"v  c #C05F65",
"b  c #C06065",
"n  c #C4656B",
"m  c #C46D72",
"M  c #C47276",
"N  c #C5767A",
"B  c #C9767B",
"V  c #C27A7E",
"C  c #A77C82",
"Z  c #B57E81",
"A  c #C37E81",
"S  c #CC7E83",
"D  c #B68083",
"F  c #BA8285",
"G  c #BB8F84",
"H  c #BF8689",
"J  c #B68C8D",
"K  c #BC918A",
"L  c #B88E90",
"P  c #B8999B",
"I  c #B9A1A3",
"U  c #B9AAAC",
"Y  c #B3B5AF",
"T  c #BEB8AF",
"R  c #BAAEB0",
"E  c #AEB3B6",
"W  c #AEB4B8",
"Q  c #B3B5B5",
"!  c #BCB3B4",
"~  c #BCBAB4",
"^  c #B1B6B9",
"/  c #BFB7B9",
"(  c #B5B9BC",
")  c #BEBDBD",
"_  c #C48387",
"`  c #C18689",
"'  c #C4898D",
"]  c #CD898C",
"[  c #C78E91",
"{  c #CC8E92",
"}  c #CB9296",
"|  c #CB9699",
" . c #CC9B9E",
".. c #D29194",
"X. c #CA9EA0",
"o. c #D59DA0",
"O. c #CDA1A3",
"+. c #D0A6A8",
"@. c #D2ABAD",
"#. c #D9ADAF",
"$. c #D2AEB0",
"%. c #DBADB0",
"&. c #C0B5B7",
"*. c #CFB1B2",
"=. c #C3BDB4",
"-. c #C1B7B8",
";. c #C3BBBC",
":. c #C8BDBF",
">. c #D5B2B4",
",. c #D5BABC",
"<. c #D9BABC",
"1. c #BFC0BC",
"2. c #C7C1B6",
"3. c #C9C2B5",
"4. c #C2C1BD",
"5. c #CAC5BC",
"6. c #CEC8BD",
"7. c #DAC2BB",
"8. c #D1CABE",
"9. c #B7BDC1",
"0. c #BBBFC1",
"q. c #C4BFC0",
"w. c #C9BFC1",
"e. c #D7BFC1",
"r. c #D9BFC1",
"t. c #BEC1C4",
"y. c #BDC5C9",
"u. c #C3C3C3",
"i. c #C9C4C4",
"p. c #C7C8C3",
"a. c #CECAC2",
"s. c #CBCAC4",
"d. c #C9C9C6",
"f. c #CDCBC7",
"g. c #C3C6C8",
"h. c #C2C6C9",
"j. c #CDC7C8",
"k. c #C6C9CB",
"l. c #C5C9CC",
"z. c #CBCBCB",
"x. c #CECBCA",
"c. c #CDCCCA",
"v. c gray80",
"b. c #D7C6C6",
"n. c #DBC5C6",
"m. c #D1CAC1",
"M. c #D2CDC4",
"N. c #DBC6C8",
"B. c #D1CECC",
"V. c #DDCACB",
"C. c #CED0CE",
"Z. c #D0D0CE",
"A. c #DECFD0",
"S. c #CFD1D1",
"D. c gray82",
"F. c #D2D3D3",
"G. c #D3D5D5",
"H. c #DED5D5",
"J. c #DEDDDD",
"K. c #E1CBCC",
"L. c #E0CFD0",
"P. c #E4D3D3",
"I. c #E3DDDD",
"U. c #EADCDC",
"Y. c #E8DFE0",
"T. c #DFE0E0",
"R. c #E2E1E1",
"E. c #ECE4E5",
"W. c #EBE8E2",
"Q. c #EDEDED",
"!. c #F0E9EA",
"~. c #EFF0F0",
"^. c #F1F2F2",
/* pixels */
"u.u.u.u.u.u.u.u.u.u.u.4.u.u.u.u.u.u.u.u.u.u.u.u.u.u.u.u.u.u.u.u.u.u.u.u.4.u.u.u.u.u.u.u.u.u.u.u.u.u.u.u.u.u.u.u.u.u.u.u.u.u.;.u.",
"v.v.v.D.v.v.D.v.v.D.c.x.D.v.v.D.D.v.v.D.v.v.D.v.v.D.v.v.D.v.v.v.D.v.v.Z.f.v.D.v.v.D.v.v.v.D.v.v.D.v.v.D.v.v.D.v.v.D.D.v.v.B.c.D.",
") ) ) ) ) ) u.) ) 4.~ ~ t.) ) ) ) ) ) u.) ) u.) ) u.) ) ) ) ) ) ) ) ) ;.~ ) u.) ) ) ) ) ) ) ) ) u.) ) u.) ) u.) ) ) ) ) ) =./ u.",
"v.v.D.D.v.D.D.v.v.D.m.f.D.D.v.D.D.v.D.D.v.D.D.D.v.D.D.v.D.D.v.D.D.v.D.B.a.v.D.D.v.D.D.v.D.D.v.D.D.v.D.D.D.v.D.D.v.D.D.v.Z.m.c.D.",
") ) ) ) ) ) ) ) ) =.~ ~ ;.) ) ) ) ) ) ) ) ) u.) ) ) ) ) ) ) ) ) ) ) =.=.T ~ ) ) ) ) ) ) ) ) ) ) ) ) ) u.) ) ) ) ) ) ) ~ =.=.~ 4.",
"v.v.D.D.v.v.D.v.M.M.6.6.8.m.v.D.D.v.v.D.v.v.D.v.v.D.v.v.D.D.v.D.D.c.8.M.6.6.m.c.v.D.D.v.D.D.v.v.D.v.v.D.v.v.D.v.v.D.Z.m.M.m.6.m.",
") ) u.u.) u.u.) ;.2.=.=.=.;.) u.u.) u.u.) u.u.u.) u.u.) u.u.) u.u.) =.2.=.=.=.) ) u.u.) u.u.) u.u.) u.u.u.) u.u.) u.4.=.=.=.~ =.",
"z.z.v.v.z.z.c.p.d.f.6.6.c.c.z.v.v.z.v.v.z.z.v.z.z.v.v.z.v.v.z.c.p.p.f.8.6.d.v.z.z.v.v.z.v.v.z.v.v.z.z.v.z.z.v.v.z.d.p.d.a.8.a.c.",
"u.u.u.u.u.u.p.4.4.u.3.3.u.u.u.u.u.u.u.u.u.u.u.u.u.u.u.u.u.u.u.u.4.1.u.5.3.4.u.u.u.u.u.u.u.u.u.u.u.u.u.u.u.u.u.u.u.p.4.4.p.5.2.i.",
"u.u.u.z.u.u.g.4.) 4.p.5.z.u.u.u.u.u.u.z.u.u.z.u.u.z.u.u.z.u.u.u.u.4.) u.5.u.z.u.u.z.u.u.u.z.u.u.z.u.u.z.u.u.z.u.t.u.5.~ u.p.p.z.",
"z.z.z.v.u.0.0.u.4.1.u.z.v.z.z.z.z.z.z.v.z.z.v.z.z.v.z.z.v.z.0.0.g.p.) p.z.z.v.z.z.v.z.z.z.z.z.z.v.z.z.v.z.z.v.g.( t.d.) 4.z.z.v.",
") ) u.u.^ ^ ^ ( ) ~ ) u.u.u.u.u.u.u.u.u.u.u.u.u.u.u.u.u.u.) E ^ ( ) ~ ) u.u.u.u.u.u.u.u.u.u.u.u.u.u.u.u.u.u.u.^ W ^ 0.) ~ u.u.u.",
"v.v.v.k.0.g.g.y.z.v.v.v.D.v.v.v.D.v.v.D.v.v.D.v.v.D.v.v.v.y.y.g.y.k.v.v.v.v.D.v.v.D.v.v.v.D.v.v.D.v.v.D.v.v.g.y.g.y.k.z.c.D.v.D.",
") ) ) ( E ^ ^ E ^ u.) ) ) ) ) ) ) ) ) 0.) ) u.) ) u.) ) ) ^ E ^ W W ) u.) ) u.) ) ) ) ) ) ) ) ) u.) ) u.) ) ( W E W W ( ) ) ) u.",
"v.v.j.x.g.y.l.g.v.D.D.v.D.D.v.D.D.S.D.G.D.D.G.D.S.G.D.x.x.v.y.g.l.l.D.G.D.D.G.D.S.G.D.S.G.G.S.D.D.v.D.D.v.i.v.g.y.l.k.v.D.D.v.D.",
") ! R ! ( W ^ ) ) ) ) ) ) ) ) ) 1.P Z D Z Z D Z Z D Z l l Z j C D Z Z D Z Z D Z Z D Z Z D Z I ) ) ) ) ) ! U ! ( E ^ ) ) ) ) ) u.",
"x.w.i.w.i.k.k.v.v.D.v.v.D.D.v.D.D.k X X X X X X X % X @ % @ @ # @ % % X % % X X X X X X X X ` D.D.v.v.x.w.i.w.i.g.k.D.v.D.D.v.D.",
"! R / ! R / t.) ) u.) ) u.u.) u.u.d $ y t t i t 7 $ 9 3 # #   & e < & y = = y t t y y t e $ Z u.u.) ) / ! ! ! ! ) t.u.) u.u.) u.",
"i.;.:.i.;.i.v.z.z.v.v.z.v.v.z.v.v.h 0 E.Q.Q.Q.Q.@.: <.{ . @ . 6 U.M w E.b v E.Q.Q.E.Q.Q.P.1 H v.v.z.z.j.;.;.i.:.i.v.v.z.v.v.z.v.",
"u./ &.-./ u.u.u.u.u.u.u.u.u.u.u.u.d 7 I.H.V.L.A.| * @.' < # * y n.s 9 I.i y V.V.H.R.P.V.<., D u.u.u.u.u.-.! -.;.u.u.u.u.u.u.u.u.",
"u.u.;.-.u.u.z.u.u.z.u.u.z.u.u.z.z.d 7 R.N : 1 1 * @ : N <.1 _ n.6 $ r R.a $ 1 , A I.r , 1 @ F z.z.u.u.z.u.-.;.u.u.z.z.u.u.z.u.z.",
"z.k.i.u.z.z.v.z.z.v.z.z.z.z.z.z.v.h 0 E.M $ : : $ % . N V.6 { K.: . r E.a . % . M Y.6 . @ @ H v.z.z.z.v.z.u.i.z.z.z.z.z.z.z.z.v.",
"u.) u.u.u.u.u.u.u.u.u.u.u.u.u.u.g.d 7 I.V.,.r.e.' # # = y >._ 7 $ . q I.a . # . k I.5 . # . Z g.u.u.u.u.u.u.u.u.u.u.u.u.u.u.u.u.",
"v.v.v.D.v.v.D.v.v.D.v.v.D.v.v.v.D.h 0 E.Q.~.^.~.#.% % @ 2 U.] X % . r E.n X % X N E.8 @ % % ` S.D.v.v.D.v.v.D.v.v.v.v.v.v.D.v.D.",
") ) ) u.) ) u.) ) u.) ) u.) ) ) u.p 5 H.} f h h e #   t  .k ` [ &   q H.u   #   h H.5   # . Z t.u.) ) u.) ) u.) ) u.) ) ) u.) u.",
"v.v.D.D.v.D.D.v.v.D.D.v.D.D.v.D.D.k 0 E.m X X X X % X S E.2 ..U.> X c E.n o % o B E.8 % % % ' D.D.v.v.D.D.v.D.D.v.D.D.v.D.D.v.D.",
") ) ) ) ) ) ) ) ) ) ) ) ) ) ) ) t.p 5 H.X.x A A u $ h _ _ * u ' A 3 q H.u   #   h H.5   #   Z t.) ) ) ) ) ) ) ) ) ) ) ) ) ) ) u.",
"v.v.D.D.v.v.D.v.S.D.D.v.D.D.v.D.D.h 0 !.^.^.^.^.%.> P.o.X % o 8 E.B r !.n o % o B E.0 % % % ` D.D.v.v.D.v.v.D.D.v.D.D.v.D.D.v.D.",
") ) u.u.) ) u.) ) u.) ) u.u.) u.u.d < +.@.@.$.$._ & | z . #   < +.t 5 @.q   #   u +.<   # . Z u.u.) ) u.) ) u.) ) u.u.) u.u.) u.",
"z.z.v.v.z.v.v.z.z.v.v.z.v.v.z.v.S.k % % % % % % % % % % % % @ % % % % % % % % % % % % @ % % H C.v.z.v.v.v.z.v.v.z.v.v.z.v.v.z.v.",
"u.u.u.u.u.u.u.u.u.u.u.u.u.u.u.u.u.g . @ # # @ # # @ # # @ # # # @ # # @ # # @ # # @ # # # . D g.u.u.u.u.u.u.u.u.u.u.u.u.u.u.u.u.",
"u.u.z.z.u.u.z.u.u.z.u.u.z.z.u.z.z.g . @ @ @ @ @ @ @ @ @ @ @ @ @ @ @ @ @ @ @ @ @ @ @ @ @ @ @ F z.z.u.u.z.u.u.z.z.u.z.z.u.z.z.u.z.",
"u.u.z.z.u.z.z.z.z.z.z.z.z.z.u.z.v.h . % @ @ % @ @ % @ @ @ @ @ @ % @ @ % @ @ % @ $ : $ @ @ @ H v.z.z.z.z.z.z.z.z.u.z.z.u.z.z.u.z.",
"u.u.u.u.u.u.u.u.u.u.u.u.u.u.u.u.u.d . # # # @ # # @ # # # # # # # # # @ # # @ . s <.4 . # . D g.u.u.u.u.u.u.u.u.u.u.u.u.u.u.u.u.",
"v.z.v.v.v.v.v.v.v.v.v.v.v.v.v.v.S.k o % % % % % % % % % % % % % % % % % % % % o N E.8 @ % % ` S.v.v.v.v.v.v.v.v.v.v.v.v.v.v.v.v.",
") ) ) u.) ) u.) ) u.) ) u.) ) ) u.d < X.O.O.O.O.O.O.O.O.O.O.O.O.O.O.O.O.O.O.O.O.,.I.@.f . . Z t.u.) ) u.) ) u.) ) u.) ) ) u.) u.",
"v.v.D.D.v.D.D.v.v.D.D.v.D.D.v.D.D.k 0 !.^.^.^.^.~.^.^.Q.^.^.~.^.^.~.^.^.~.~.^.^.Q.^.^...X % ` D.D.v.D.D.v.v.D.D.v.D.D.v.D.D.v.D.",
") ) ) ) ) ) ) ) ) ) ) ) ) ) ) ) t.p 5 H.J.J.R.J.J.R.J.J.R.R.J.R.R.J.J.R.J.J.R.J.J.R.T.*.z & x t.u.) ) ) ) ) ) ) ) ) ) ) ) ) ) u.",
"v.v.D.D.v.D.D.v.v.D.D.v.D.D.v.D.D.k 0 E.Q.Q.^.~.Q.^.^.Q.^.^.Q.^.^.Q.Q.^.Q.Q.^.Q.Q.^.^.~.U.2 ` D.D.v.v.D.v.v.D.D.v.D.D.v.D.D.v.D.",
") ) u.u.) ) u.) ) u.) ) u.u.) u.u.p 5 H.T.R.R.T.J.R.R.J.R.R.J.R.R.J.R.R.J.J.R.R.J.R.R.b. .* Z u.u.) ) u.) ) u.) ) u.u.) u.4.) u.",
"z.z.v.v.z.v.v.v.v.v.a.d.v.v.z.v.S.h 0 E.Q.Q.^.Q.Q.^.Q.Q.^.~.Q.~.^.Q.Q.Q.W.Q.^.Q.Q.Q.^...% % H S.v.v.v.v.v.v.v.v.z.v.v.z.v.a.d.v.",
"u.u.u.u.u.u.u.u.u.u.=.;.u.u.u.u.u.d 5 n.n.N.N.n.n.N.N.n.N.N.n.N.N.n.N.n.7.n.N.n.H.R.A.V . . D u.u.u.u.u.u.u.u.u.u.u.u.u.u.=.4.u.",
"u.u.z.z.d.z.z.u.i.d.3.4.z.z.u.z.z.h @ : : : , : : , : : , , : , , : , , , , , : A R.r $ @ @ F z.z.u.u.z.z.z.z.z.u.z.z.p.p.3.5.z.",
"u.u.z.z.u.z.z.u.p.6.3.2.5.p.u.z.z.h . @ @ @ @ @ @ @ @ @ @ @ @ @ @ $ - - + + - . m P.6 . @ @ F z.z.u.z.z.z.u.z.z.u.z.z.5.6.5.2.p.",
"u.u.u.u.u.u.u.u.4.3.=.=.=.2.u.u.u.d . @ # # @ # # @ # # # # . # @ $ - - O O & # * 7 $ # # . D g.u.u.u.u.u.u.u.u.u.u.p.2.3.2.=.2.",
"z.z.v.v.z.v.v.d.z.M.8.6.f.c.z.v.S.k o % @ % % % @ % % @ % % @ % - & - ; - % % % @ % % @ % % H S.v.v.v.D.v.v.v.v.z.v.c.d.8.8.a.f.",
") ) u.u.) ) 4.~ ~ 4.=.=.4.0.) u.u.I J L J J L J J L J J J J J J J J J K G J L J J L J J J J U t.u.) ) u.) ) u.) ) ) ~ ) ;.=.=.u.",
"v.v.D.D.v.v.D.d.p.v.M.M.D.D.v.D.D.C.D.G.S.D.G.D.S.G.D.S.G.D.S.S.C.d.v.D.M.Z.G.D.S.G.D.S.D.G.v.D.D.v.v.D.v.v.D.D.v.Z.d.p.v.M.M.D.",
") ) ) ) ) ^ ^ ) Q Q / ) ) ) ) ) ) ) ) ) ) ) ) ) ) ) ) ) ) ) ^ ^ ) ~ Y ) ) ) ) ) ) ) ) ) ) ) ) ) ) ) ) ) ) ) ) ) E ( ) Y Q ) ) u.",
"v.v.D.D.g.y.y.k.d.p.c.v.D.D.v.D.D.v.D.D.v.D.D.v.v.D.D.v.D.v.y.y.g.z.4.d.v.v.D.D.v.D.D.v.D.D.v.D.D.v.v.D.v.v.D.g.0.y.v.p.p.Z.v.D.",
") ) ) ) E ^ ^ ^ ) ) ) ) u.) ) u.u.) ) u.) ) u.) ) u.) ) ) ^ E ^ ^ ) ~ ) ) ) u.) ) u.) ) u.u.) ) u.) ) u.) ) ( E ^ W ( ) ~ u.) u.",
"v.z.v.g.0.g.y.t.g.v.v.v.v.v.z.v.v.v.v.v.v.v.v.v.v.v.v.v.v.y.y.g.y.y.z.Z.v.v.v.v.v.v.v.z.v.v.v.v.v.v.v.v.v.z.g.y.y.y.y.g.v.v.v.v.",
"u.u.u.u.^ ^ ( ^ ) u.u.u.u.u.u.u.u.u.u.u.u.u.u.u.u.u.u.;.u.( ^ ( ( ( u.u.u.u.u.u.u.u.u.u.u.u.u.u.u.u.u.u.u.;.0.( ^ ( ( ) u.u.u.u.",
"u.u.;.:.t.9.y.g.u.z.z.z.z.z.u.z.z.u.z.z.u.z.z.z.u.z.i.;.;.u.0.0.g.u.z.z.z.z.z.z.u.z.z.u.z.z.u.z.z.u.z.z.u.-.u.y.( u.k.u.z.z.u.z.",
"u.-.-.-.q.0.0.u.u.z.u.u.z.z.u.z.z.u.z.z.u.u.z.u.u.z.u.-.-.q.0.9.g.u.u.z.u.u.z.u.u.z.z.u.z.z.u.z.z.u.u.i.-.-.;.u.( t.z.u.z.z.u.z.",
"/ ! ;./ ! ) t.u.u.u.u.u.u.u.u.u.u.u.u.u.u.u.u.u.u.u.&./ / ! / t.u.u.u.u.u.u.u.u.u.u.u.u.u.u.u.u.u.u.u.-.&./ ! / ) u.u.u.u.u.u.u.",
"u.;.:.w.;.i.v.v.v.v.v.z.v.v.z.v.v.z.v.v.z.v.v.v.v.v.:.;.w.:.q.v.v.z.v.v.v.v.v.v.z.v.v.z.v.v.z.v.v.z.x.i.;.:.i.:.i.v.v.z.v.v.z.v.",
") ! ! / ! ) u.) ) u.) ) u.u.) u.u.) u.u.) ) u.) ) u./ R ! ! ! u.u.) ) u.) ) u.) ) u.u.) u.u.) ) u.) ) ;.! ! / ! ) u.q.) u.u.) u.",
"v.x.i.w.i.D.D.v.v.D.v.v.D.D.v.D.D.v.D.D.v.v.D.v.v.D.v.i.w.i.v.D.D.v.D.D.v.v.D.D.v.D.D.v.D.D.v.D.D.v.v.D.j.:.i.v.v.D.D.v.D.D.v.D.",
") ) / ! ) ) ) ) ) ) ) ) ) ) ) ) ) ) ) ) ) ) ) ) ) ) ) ) ! / ) ) ) ) ) ) ) ) ) ) ) ) ) ) ) ) ) ) ) ) ) ) ) ! / ) ) ) ) ) ) ) ) u.",
"v.v.D.B.v.D.D.v.v.D.D.v.D.D.v.D.D.v.D.D.v.D.D.v.v.D.D.v.B.D.v.D.D.v.D.D.v.v.D.D.v.D.D.v.D.D.v.D.D.v.v.D.D.v.D.D.v.D.D.v.D.D.v.D.",
") ) ) u.) ) u.) ) u.) ) u.) ) ) u.) ) u.) ) u.) ) u.) ) u.) ) ) u.) ) u.) ) u.) ) u.) ) ) u.) ) u.) ) u.) ) u.) ) u.) ) ) u.) u.",
"v.v.v.v.v.v.D.v.v.D.v.v.v.v.v.v.v.v.v.v.v.v.D.v.v.D.v.v.v.v.v.v.v.v.v.D.v.v.D.v.v.v.v.v.v.v.v.v.D.v.v.D.v.v.D.v.v.v.v.v.v.v.v.v.",
") ) u.u.) u.u.u.u.u.u.) u.u.) u.u.) u.u.) u.u.u.) u.u.) u.u.) u.u.) u.u.u.u.u.u.) u.u.) u.u.) u.u.t.u.u.u.) u.u.) u.u.) u.u.) u."
};
