/* XPM */
static char *_c885217c3344ea2ddb083fc052bc4e1L19sMBLfjXhFDDo4[] = {
/* columns rows colors chars-per-pixel */
"64 64 22 1 ",
"  c None",
". c black",
"X c #0C7D41",
"o c #795548",
"O c #BF0B0B",
"+ c red",
"@ c #E53935",
"# c #EB4512",
"$ c #875F51",
"% c #AD7D6D",
"& c #FF5454",
"* c #0DA152",
"= c #FF9800",
"- c #FFC107",
"; c #FFEB3B",
": c #C68642",
"> c #FFAD60",
", c #8BC34A",
"< c #FFCD94",
"1 c #FFDBAC",
"2 c #FFE0BD",
"3 c white",
/* pixels */
"                                                                ",
"                                                                ",
"                                                                ",
"                                       ;;                       ",
"                                      ;;;;;   ;;;;;             ",
"                                      ;;;;;;;;---;;             ",
"                                        ;;------;               ",
"                             ;;;;;;;;;; ;;-----;;;              ",
"                           ;;--------;;;;------;;;              ",
"                         ;;;--------------------;;;             ",
"                        ;;-------====------------;;             ",
"                     ;;;;----=====##===----------;;             ",
"                    ;;;---====#########==---------;             ",
"                    #======###222222222##=--------;             ",
"                    #===###22222222222222#==-------             ",
"                     ###2222222222222222222#=------             ",
"                     22222222222222222223322=--====-            ",
"                     2222222222222222233333#=-=#<<#=            ",
"                     2222333222222222333333##=#222<=            ",
"                     22233333X222222XX333333##2<22<=            ",
"                      223333**X22222X**3333322222<-=            ",
"                      22333X**.22222.**X33332222<-=             ",
"                      22233XX3.222<2.3XXX3332222=-=             ",
"                       2223XX..22<22...X22222222===             ",
"                       <222222222<22222222222222<               ",
"                       <22222222<22222222222222<<               ",
"            .....       <2222222<2222222222222<                 ",
"           .......      <2222222<<<<222222222<<                 ",
"          .22.<22.       <222@22222222@222<<<                   ",
"         ...<.1<2.        <222@@2222@@2222<                     ",
"         .........         <2222@@@@2222<<+++                   ",
"          .......        ++ <2222222222<++++++                  ",
"           .22..        +++++<<<<<<<<<<++++++++                 ",
"           ....22       ++++++++++++++++++++++++                ",
"            22222      &++++++++++++++++++++&&&+                ",
"            222222    :&&+++++++++++++++++++&&++                ",
"             22222   >:&&++++++++++++++++++&&&:>                ",
"              2222  <>::&&++++++++++++++++OO::>>                ",
"              222222<>>::  +++++++++++++++O:>>><                ",
"               222222<>>>  ++++++++++++++O ><<<22               ",
"               2222222<<   ++++++&&+++++OO  222222              ",
"                222222    ++++++&&&++++OOO  222222              ",
"                 222      +++++&&&&+++OOO    22222              ",
"                         &+++++&&&:++OOO      2222              ",
"                         &++++&&&&++OOO       2222              ",
"                         &&OOOOO&OOOOO        2222              ",
"                         OOOOOOOOOOOO        2222               ",
"                         OOO,,,,,,,,,       .2222               ",
"                          ,,,,,,,,,,,,     .......              ",
"                         ,,,,,,,,,,,,,     ....<<.              ",
"                        ,,,,,,,,,,,,,,,   ........              ",
"                       ,,,,,,,,,,,,,,,,  .........              ",
"                      ,,,,,,,,,,  ,,,,,, 222......              ",
"                     X,,,,,,,,    ,,,,,X  22.....2              ",
"                     XXX,,,,,     ,,,,X<    222222              ",
"                     <<XX,,,      X,,X<<    2222                ",
"                    22<<XXX       <XX<<22                       ",
"                   2222<<<        <<<<222                       ",
"                  2222222          222222                       ",
"                  222222            2222oo                      ",
"                 oo$2222             ooooo%%                    ",
"                o33%$o22             ooo$%33o                   ",
"               o333%$ooo             ooo$$%33o                  ",
"               ooooooooo             ooooooooo                  "
};
