/* XPM */
static char *_2c78fe1e3c64d3eb49b4765ce73cbd3gLmZDBt8PiWqrTz9[] = {
/* columns rows colors chars-per-pixel */
"64 64 110 2 ",
"   c #010101",
".  c #080606",
"X  c #0B0806",
"o  c #090708",
"O  c #0B090A",
"+  c #120E0D",
"@  c #1A1204",
"#  c #15100E",
"$  c #18120F",
"%  c #150F13",
"&  c #151112",
"*  c #1B1512",
"=  c #1D151A",
"-  c gray12",
";  c #201605",
":  c #201917",
">  c #20171D",
",  c #221A1C",
"<  c #291F1E",
"1  c #322206",
"2  c #32230A",
"3  c #22201F",
"4  c #2C231E",
"5  c #31261E",
"6  c #241A21",
"7  c #281D25",
"8  c #242323",
"9  c #2C2126",
"0  c #2E2228",
"q  c #2D2D2D",
"w  c #312623",
"e  c #362A27",
"r  c #3A2D25",
"t  c #322529",
"y  c #35292B",
"u  c #3B2D2C",
"i  c #3E3127",
"p  c #3F312D",
"a  c #352B32",
"s  c #382D30",
"d  c #323232",
"f  c #393939",
"g  c #42332E",
"h  c #48382F",
"j  c #463630",
"k  c #483730",
"l  c #4B3B31",
"z  c #4E3F38",
"x  c #503F33",
"c  c #4F413B",
"v  c #544234",
"b  c #594636",
"n  c #5B4837",
"m  c #55453A",
"M  c #594739",
"N  c #5C4A3B",
"B  c #464646",
"V  c #534741",
"C  c #554944",
"Z  c #5F4E40",
"A  c #504D4E",
"S  c #5E5045",
"D  c #5F5148",
"F  c #555555",
"G  c gray37",
"H  c #604F41",
"J  c #625244",
"K  c #64564A",
"L  c #67594C",
"P  c #695B4E",
"I  c #6B5E52",
"U  c #6C5F53",
"Y  c #6C5F54",
"T  c #615D5F",
"R  c #6D6053",
"E  c #606060",
"W  c gray40",
"Q  c #6B6861",
"!  c #6A6A6A",
"~  c #6D696C",
"^  c #726F71",
"/  c #717171",
"(  c #767676",
")  c #7C7973",
"_  c gray48",
"`  c #7C7B7C",
"'  c #7E7E7E",
"]  c #838383",
"[  c gray53",
"{  c #8A8680",
"}  c #8E8E8E",
"|  c #909090",
" . c #949193",
".. c #969395",
"X. c gray58",
"o. c #9A9A9A",
"O. c #9B9B9C",
"+. c #9F9C9E",
"@. c gray64",
"#. c #A6A3A4",
"$. c gray65",
"%. c #A7A7A7",
"&. c #ADABAC",
"*. c #AFAEAF",
"=. c #B4B4B4",
"-. c #BBBBBB",
";. c #C0C0C0",
":. c gray78",
">. c #CACACA",
",. c #CECECE",
/* pixels */
"                                                                                                                                ",
"q f d 8 8 f d O O O O O O O O O O O O O O O O O O O O O O O O O O O O O O O O O .       . O O O O O O O O O O O O O O 8 q 8 q f ",
"@.>.=.' [ ;.*.a 7 7 7 7 7 7 7 7 7 7 7 7 7 7 7 7 7 7 7 7 7 7 7 7 7 7 7 7 7 7 7 7 =       = 7 7 7 7 7 7 7 7 7 7 7 7 7 7 ..+._ o.>.",
"$.:.=.[ } ;.&.a 7 7 7 7 7 7 7 7 7 7 7 7 7 7 7 7 7 7 7 7 7 7 7 7 7 7 7 7 7 7 7 7 =       = 7 7 7 7 7 7 7 7 7 7 7 7 7 7  .@.] +.:.",
"$.} O.;.-.X.` t 7 7 7 7 7 7 7 7 7 7 7 7 7 7 7 7 7 7 7 7 7 7 7 7 7 7 7 7 7 7 7 7 =       = 7 7 7 7 7 7 7 7 7 7 7 7 7 7 ~ *.:.*.} ",
"{ Q ) #.+.^ T u y t y s s s s s s s s s s s s s s y t t t y s s y t t t y 0 0 0 , o o o , 0 0 0 y s s y t t t y 0 0 0 A [ +.[ ( ",
"2 2 2 y 0 0 y v b b Z I I I I I I I I I I I I I I J b b b J I I P M b b v g g g u 7 7 7 u g g g D I I K b b b l g g g & . . O ] ",
"1 1 2 7 7 7 y v b b J U U U U U U U U U U U U U U J b b b K U U P N b b v g g g u 7 7 7 u g g j K U U P b b b x g g g #     O o.",
"1 1 2 7 7 7 0 v b b J U U U U U U U U U U U U U U J b b b K Y U P N b b v g g g u 7 7 7 u g g g K U U L b b b x g g g #     O [ ",
"1 1 2 7 7 7 y N J S K U U U U U U U U U U U U U U K J J J J K K J J J J N l k l g 7 7 7 p l k l K U U P J J J N k k k #     . E ",
"1 1 2 7 7 7 y P U U U I U U U U U U U U U U U U I U U U U H b b N I U U P b b b k 7 7 7 k b b b L U I U U U U K b b b *     . W ",
"1 1 2 7 7 7 y P U U U U U U U U U U U U U U U U U U U U U H b b N I U U L b b b k 7 7 7 k b b b L U U U U U U K b b b *     O | ",
"1 1 2 7 7 7 y P U U U I U U U U U U U U U U U U I U U U U H b b N I U U P b b b k 7 7 7 k b b b L U I U U U Y K b b b *     O o.",
"; ; ; 6 7 7 y J K K P U U U U U U U U U U U U U U P K K K J N N H K K K J v x x g 7 7 7 k b b b L U U I K K K J b b b *     . ( ",
"      6 7 7 y v b b J U U U U U U U U U U U U U U J b b b K U U P N b b v g g g u 7 7 7 k b b b L U U P b b b b b b b *     . G ",
"      6 7 7 y v b b J U U U U U U U U U U U U U U J b b b K U U P N b b v g g g u 7 7 7 k b b b L U U P b b b b b b b *     . / ",
"      6 7 7 y v b b J U U U U U U U U U U U U U U J b b b K U U P N b b v g g g u 7 7 7 k b b b L U U P b b b b b b b *     O o.",
"@ @ @ 6 7 7 9 k l l m J J J J J J J J J J J J J J m l l l N J J Z l l l k g g g u 7 7 7 g l l l N J J Z b b b v l l k $     . B ",
"1 1 2 7 7 7 9 p g g l b b b b b b b b b b b b b b l g g g l b b v g g g g g g g u 7 7 7 u g g g v b b b b b b x g g g #         ",
"1 1 2 7 7 7 9 p g g l b b b b b b b b b b b b b b l g g g x b b v g g g g g g g u 7 7 7 u g g g v b b b b b b x g g g #         ",
"1 1 2 7 7 7 0 g g g l b b b b b b b b b b b b b b l g g g x b b b g g g g g g g u 7 7 7 u g g g v b b b b b b v g g g #         ",
"@ @ @ & % % = y y y u g g g g g g p 5 4 4 4 4 4 4 w y y y u g g g y y y y y y y 9 & % % * : : : u g g g g g g e : : : X       O ",
"            . 6 7 7 7 7 7 7 7 7 7 6               % 7 7 7 7 7 7 7 7 7 7 7 7 7 7 =               = 7 7 7 7 7 7 =               = ",
"            . 6 7 7 7 7 7 7 7 7 7 6               % 7 7 7 7 7 7 7 7 7 7 7 7 7 7 =               = 7 7 7 7 7 7 =               = ",
"            . 6 7 7 7 7 7 7 7 7 7 6               % 7 7 7 7 7 7 7 7 7 7 7 7 7 7 =               = 7 7 7 7 7 7 =               = ",
"      & = = , g k k c C C C z k k g 9 4 4 < = = = 9 u u u g k k k V C C C C C C V z z z i r r r c C C m k k k p 4 4 4 O       = ",
"      6 7 7 y v b b J R R R J b b b j g g u 7 7 7 y g g g x b b N I R R R R R R R R R R J b b n P R R P b b b v g g g #       = ",
"      6 7 7 y v b b J U U U J b b v g g g u 7 7 7 y g g g x b b N I U U U U U U U U U I Z b b b L U U P b b b x g g g #       = ",
"      6 7 7 y v b b J U U U J b b v g g g u 7 7 7 y g g g x b b N I U U U U U U U I I I Z b b b L U U P b b b x g g g #       = ",
"      6 7 7 y S K K P U U U P K K J v x x k 9 7 7 u x l l N K K K I U U U U U U U I I I L K K K J H H J K K K Z x l l *       = ",
"      6 7 7 y P U U U I U I U U U I N b b x 9 7 7 g b b b K Y U U U I U U U U U U U U U U U U I N b b N I U Y K b b b *       = ",
"      6 7 7 y P U U U U U U U U U P N b b x 9 7 7 g b b b K U U U U U U U U U U U U U U U U U I N b b N I U U K b b b *       = ",
"      6 7 7 y P I I I U U U I I I P N b b x 9 7 7 g b b b K U U U U U U U U U U U U U U I I I I N b b N I I I K b b b *       = ",
"      6 7 7 y m N N K I U U J N N N b b b x 9 7 7 g b b b K U U U U U U U U U U U U U I J N N N K P P K N N N m j j j #       = ",
"      6 7 7 y v b b J U U U J b b b b b b x 9 7 7 g b b b K U U U U U U U U U U U U U I N b b b L U U P b b b x g g g #       = ",
"      6 7 7 y v b b J U U U J b b b b b b x 9 7 7 g b b b K U U U U U U U U U U U U U I Z b b b L U U P b b b x g g g #       = ",
"      6 7 7 y v b b J I I I J b b b b b b l 9 7 7 g b b b K I I I I I I I I I I I I I I N b b b L I I L b b b x g g g #       = ",
"      6 7 7 9 j k j v N N N N b b b k k k g 7 7 7 u k k k m N N N N N N N N N N N N N N N b b b N N N M k k k j g g g #       . ",
"      6 7 7 9 p g g l b b b b b b v g g g u 7 7 7 y g g g l b b b b b b b b b b b b b b b b b b b b b v g g g g g g g #         ",
"      6 7 7 9 g g g l b b b b b b b g g g u 7 7 7 y g g g x b b b b b b b b b b b b b b b b b b b b b v g g g g g g g #         ",
"      = 6 6 7 u p p k v v v v v v x g p p u 7 7 7 t p p p l v v v v v v v l l l l l l l v v v v v v v l g p p u u u u +       O ",
"            O 7 9 9 9 0 0 0 0 0 0 9 9 9 9 9 7 7 7 7 9 9 9 9 0 0 0 0 0 y 6 O X X X X X X , 0 0 0 0 0 0 9 9 9 9 > . . .       . G ",
"              6 7 7 7 7 7 7 7 7 7 7 7 7 7 7 7 7 7 7 7 7 7 7 7 7 7 7 7 7 >               = 7 7 7 7 7 7 7 7 7 7 =             . G ",
"            . 6 7 7 7 7 7 7 7 7 7 7 7 7 7 7 7 7 7 7 7 7 7 7 7 7 7 7 7 7 >               = 7 7 7 7 7 7 7 7 7 7 =             . ( ",
"            o 7 9 9 0 0 0 0 0 0 0 0 0 0 0 0 9 9 9 0 0 0 0 9 9 9 9 9 9 9 , .             = 9 7 7 9 9 9 9 9 9 9 =             O o.",
"      = , , 7 l x x N D K K K K K K K K K S v x x N K K K m x x x x x x k u e e w , , , t u u u l x x x x x x h e e e +     O | ",
"      6 7 7 y v b b J R I I U U I I U U R P N b b J R U U J b b b b b b v j j g u 7 7 7 u g g g v b b b b b b v g g g #     . W ",
"      6 7 7 y v b b J I I U U U U U U U U P b b b J U U U H b b b b b b v j g g u 7 7 7 u g g g v b b b b b b x g g g #     . G ",
"      6 7 7 y M N N J U U U U U U I P P P K N N N J P P P J N N N b b b v j j j u 7 7 7 u j j j m N N N N N N b j j g #     O [ ",
"      6 7 7 y P I I I U U U U U U P N b b N P I I J b b b K I I P N b b b b b b k 7 7 7 j b b b K I I I I I I K b b b *     O o.",
"      6 7 7 y P U U U U U U U U U P N b b N I U U J b b b K U U P N b b b b b b k 7 7 7 k b b b L U U U U U U K b b b *     O ] ",
"      6 7 7 y P U U U I U U U U U P N b b N I U U J b b b K U U P N b b b b b b k 7 7 7 k b b b L U I U U U U K b b b *     . G ",
"      6 7 7 t K P P I U U U U U U I N N N N P P P J N N N K P P L N b b b v v v k 7 7 7 k b b b L U U I P P P J b b b *     . W ",
"      6 7 7 0 b N M J U U U U U U I I I I P N N M J I I I J M N M b b b v g g g u 7 7 7 k b b b L U U P N N N b b b b *     O | ",
"      6 7 7 y v b b J U U U U U U U U U U P b b b J U U U H b b b b b b v g g g u 7 7 7 k b b b L U U P b b b b b b b *     O o.",
"      6 7 7 y v b b J U U U U U U U U U U P b b b J U U U H b b b b b b v g g g u 7 7 7 k b b b P U U P b b b b b b b *     . / ",
"      = = = , l v x N K K K K K K K K K K J b b b Z K K K N x v v v v v l g g g y = = = p v v v J K K J b b b b v v x *     . G ",
"            X u g g l b b b b b b b b b b b b b b b b b b k g g g g g g g g g g 9       4 g g g v b b b b b b x g g g #     O ( ",
"            X u g g l b b b b b b b b b b b b b b b b b b k g g g g g g g g g g 9       4 g g g v b b b b b b x g g g #     O o.",
"            X u g g l b b b b b b b b b b b b b b b b b b k g g g g g g g g g j 9       4 j g g v b b b b b b v g g g #     O } ",
"8 - 8 d q 8 3 w w w r g g g g g g g g g g g g g g g g g g r w w w w w w w w w w :       : w w w i g g g g g g r w w w 8 8 d q ! ",
"+._ | ;.-.[ ! O                                                                                                       F $.:.$.' ",
"$.=.*.X.o.=.o.O                                                                                                       ' $.X.@.=.",
"$.,.-.' [ :.*.&                                                                                                       } @._ +.,."
};
