/* XPM */
static char *a499b6cd0a8749869bb94e5ac20cc52eLDR5xTN1zPRUtqi1[] = {
/* columns rows colors chars-per-pixel */
"65 65 195 2 ",
"   c #7A5304",
".  c #76540C",
"X  c #7B560C",
"o  c #7B5712",
"O  c #7C5813",
"+  c #835605",
"@  c #835807",
"#  c #8C5B02",
"$  c #835B0C",
"%  c #85590C",
"&  c #835E12",
"*  c #845F19",
"=  c #946203",
"-  c #9C6501",
";  c #9D6903",
":  c #94650D",
">  c #98650C",
",  c #9C6C0E",
"<  c #8E6413",
"1  c #87621A",
"2  c #936613",
"3  c #976814",
"4  c #926A1D",
"5  c #996A1A",
"6  c #A76E05",
"7  c #AA730C",
"8  c #A16E13",
"9  c #A47215",
"0  c #AB7414",
"q  c #AD7A15",
"w  c #A4741C",
"e  c #AD771B",
"r  c #AD7C1D",
"t  c #B07C16",
"y  c #BA7D14",
"u  c #B07C1A",
"i  c #806027",
"p  c #8F6723",
"a  c #8F6923",
"s  c #84642D",
"d  c #8F6929",
"f  c #936A23",
"g  c #996F24",
"h  c #926C2B",
"j  c #977025",
"k  c #9D7324",
"l  c #96702A",
"z  c #9A7328",
"x  c #8E6D32",
"c  c #926E30",
"v  c #967235",
"b  c #9A7434",
"n  c #957239",
"m  c #99763C",
"M  c #9D7A3C",
"N  c #A17624",
"B  c #A67A25",
"V  c #AB7C22",
"C  c #A27728",
"Z  c #A37A29",
"A  c #A97C29",
"S  c #B37D23",
"D  c #A37D37",
"F  c #9E7B42",
"G  c #A17E43",
"H  c #B78117",
"J  c #BB8016",
"K  c #B6811A",
"L  c #B9831C",
"P  c #A78226",
"I  c #A98225",
"U  c #AC832E",
"Y  c #B48224",
"T  c #BC8623",
"R  c #BF8926",
"E  c #BB862C",
"W  c #B6892B",
"Q  c #BD8A2B",
"!  c #B48931",
"~  c #B48936",
"^  c #BB8C34",
"/  c #C5891C",
"(  c #C78A1F",
")  c #CD931F",
"_  c #C08622",
"`  c #C38C24",
"'  c #C28C29",
"]  c #C98F2E",
"[  c #C79224",
"{  c #CB9322",
"}  c #C6932B",
"|  c #CB9429",
" . c #D29523",
".. c #D79926",
"X. c #DA9B26",
"o. c #D4962C",
"O. c #D69A2A",
"+. c #DC9D2A",
"@. c #C78F32",
"#. c #C59332",
"$. c #CC9434",
"%. c #C3953A",
"&. c #C89A3C",
"*. c #D49C35",
"=. c #DD9F33",
"-. c #DB9C3A",
";. c #E79F26",
":. c #E59F29",
">. c #E39F30",
",. c #DFA02E",
"<. c #DFA134",
"1. c #DCA23B",
"2. c #E5A027",
"3. c #E4A02A",
"4. c #E3A232",
"5. c #E9A636",
"6. c #E5A63A",
"7. c #E8A63A",
"8. c #E6A93F",
"9. c #EAA93D",
"0. c #A78547",
"q. c #A98549",
"w. c #AC894E",
"e. c #A88752",
"r. c #AD8C56",
"t. c #AA8B5D",
"y. c #B28F57",
"u. c #B99654",
"i. c #B5945D",
"p. c #B09163",
"a. c #BD9B64",
"s. c #BE9E6D",
"d. c #C49742",
"f. c #C39D4D",
"g. c #CD9F4A",
"h. c #CDA24C",
"j. c #D4A042",
"k. c #DCA240",
"l. c #DDA946",
"z. c #D4A44E",
"x. c #D8A74B",
"c. c #DDA94F",
"v. c #DFAC52",
"b. c #DCAE58",
"n. c #DEB154",
"m. c #DDB15B",
"M. c #E4A544",
"N. c #E5AB47",
"B. c #E9A945",
"V. c #E2A749",
"C. c #E5AB49",
"Z. c #E9AA48",
"A. c #E7B04D",
"S. c #EAB34F",
"D. c #E2AC51",
"F. c #E3B353",
"G. c #E5B75B",
"H. c #E8B75A",
"J. c #EFBD5D",
"K. c #F0BD5C",
"L. c #C8A76E",
"P. c #D0AC62",
"I. c #D9B368",
"U. c #DEB96B",
"Y. c #C1A171",
"T. c #C6A679",
"R. c #CAA97A",
"E. c #D2B275",
"W. c #E3BA65",
"Q. c #E6BA65",
"!. c #EBBC62",
"~. c #E8BF6D",
"^. c #EFC066",
"/. c #F3C263",
"(. c #F8C666",
"). c #F5C769",
"_. c #FACC6D",
"`. c #FACF71",
"'. c #FFD476",
"]. c #FFD478",
"[. c #FFD97B",
"{. c #FFDA7E",
"}. c #CCAD81",
"|. c #D0B087",
" X c #D3B489",
".X c #D5B88C",
"XX c #D6B791",
"oX c #D6B992",
"OX c #D6B995",
"+X c #D1B79E",
"@X c #D3B99B",
"#X c #D2B89F",
"$X c #D1B9A1",
"%X c #FFDD81",
"&X c #FFDE83",
/* pixels */
"#X#X#X#XOXoXR.i.w.q.q.q.q.q.q.q.q.q.q.q.q.q.q.q.q.q.q.q.q.q.q.q.q.q.q.q.q.q.q.q.q.q.F x q.q.q.q.q.q.q.q.q.q.q.0.w.i.R.oXOX#X#X#X#X",
"#X#X@XoXY.m p g k C C C C C C C C C C C C C C C C C C C C C C C C C C C C C C C C z & k C C C C C C C C C C C C k j a m Y.OX@X#X#X",
"#X#XXXw.a k A A V V V V V V V V V V V V V V V V V V V V V V V V V V V V V V V V V 3 B e r V V V V V V V V V V V V A A k p r.oX@X$X",
"@XOXe.4 B V r r r r r r r r r r r r r r r r r r r r r r r r r r r r r r r r r r 9 V V r r r r r r r r r r r r r r r r V B f r.OX#X",
"OXa.a B V V r r r r V B I I I I P I I I I I I I I I I I I I I I I I I I I I I P P P P P I I I I I I I I I B V r r r r V V B f s.OX",
"XXh N V r r V V V n.`.{.%X%X%X%X%X%X%X%X%X%X%X%X%X%X%X%X%X%X%X%X%X%X%X%X%X%X%X%X%X%X%X%X%X%X%X%X%X%X%X%X%X{.`.n.V r r V V r N v .X",
"s.f A V r r V %.].{._./.K.J.J.J.J.J.J.J.J.J.J.J.J.J.J.J.J.J.J.J.J.J.J.J.J.J.J.J.J.J.J.J.J.J.J.J.J.J.J.J.J./._.{.].%.r V r r A f Y.",
"q.k V r r r &.[.).D.C.C.N.N.N.N.N.N.N.N.N.N.N.N.N.N.N.N.N.N.N.N.N.N.N.N.N.N.N.N.N.N.N.N.N.N.N.N.N.N.N.N.N.C.C.F.).[.%.V r r V k w.",
"M B r r r Y '.J.C.Z.B.B.B.B.B.Z.B.B.B.B.B.B.B.Z.B.B.B.B.B.B.B.B.B.B.B.B.B.B.B.B.B.B.B.B.B.B.B.B.B.B.B.B.B.B.B.B.N.J.].Y r r V Z M ",
"v B r r r H.K.N.B.B.B.B.B.B.B.B.B.B.B.B.B.B.B.B.B.B.B.B.B.B.B.B.B.B.B.B.B.B.B.B.B.B.B.B.B.B.B.B.B.B.B.B.B.B.B.B.B.C.K.G.r r V B b ",
"v A r r r (.C.B.B.Z.B.B.B.B.B.B.B.B.B.B.B.B.B.B.B.B.B.B.B.B.B.B.B.B.B.B.B.B.B.B.B.B.B.B.B.B.B.B.B.B.B.B.B.B.B.B.B.B.N.(.r r V A b ",
"v A r r E K.N.B.B.B.B.B.B.N.N.B.B.B.B.B.B.B.B.B.B.B.B.B.B.B.B.B.B.B.B.B.B.B.B.B.B.B.B.B.B.B.B.B.B.B.B.B.B.B.B.B.B.B.B.K.Y r V A b ",
"v A r r $.C.B.B.B.B.B.B.N.#.Q N.Z.B.B.B.B.B.B.B.B.B.B.B.B.B.B.B.B.B.B.B.B.B.B.B.B.B.B.B.B.B.B.B.B.B.B.B.B.B.B.B.B.B.B.Z.} u V A b ",
"v A r r ' B.B.B.B.B.B.Z.k.> > $.B.B.B.B.B.B.B.B.B.B.B.B.B.B.B.B.B.B.B.B.B.B.B.Z.B.B.B.B.B.B.B.B.B.B.B.B.B.B.B.B.B.B.B.N.' u V A b ",
"v A r r R B.B.B.B.B.Z.Z.N.0 8 k.B.B.B.B.B.B.B.B.B.B.B.B.B.B.B.B.B.B.B.B.B.N.$.e C.B.B.Z.B.B.B.B.B.B.B.B.-.B.B.B.B.B.B.N.T r V A b ",
"v A r u ' B.B.B.B.B.Z.Z.N.C.C.Z.B.B.B.B.B.B.B.B.B.B.B.B.B.B.B.B.B.B.B.B.B.N.] 0 V.B.B.B.B.B.B.Z.B.B.B.B.B.B.B.B.B.B.B.N.T r V A b ",
"v A r u ' B.B.B.B.B.B.B.B.B.B.B.B.B.B.B.B.B.B.B.B.B.B.B.B.B.B.B.B.B.B.B.B.B.B.Z.B.B.B.B.B.B.B.B.B.B.B.B.B.B.B.B.B.B.B.N.T u V A b ",
"v A r r R N.B.B.B.B.B.B.B.B.B.B.B.B.B.B.B.B.B.B.B.B.B.B.B.B.B.B.B.B.B.B.B.B.B.B.B.B.B.B.B.B.B.B.B.B.B.B.B.B.B.B.B.B.Z.C.E A A A b ",
"v A r r R N.B.B.B.B.B.B.B.B.B.B.B.B.B.B.B.B.B.B.B.B.B.B.B.B.B.B.B.B.B.B.B.B.B.B.B.B.B.B.B.B.B.B.B.B.B.B.B.B.B.B.B.B.N.d.@ X X o i ",
"v A r r R N.B.B.B.B.B.B.B.B.B.B.B.B.B.B.B.B.B.B.B.B.B.B.B.B.B.B.B.B.B.B.B.B.B.B.B.B.B.B.B.B.B.B.B.B.B.B.B.B.B.B.B.N.x.% X o O o x ",
"v A r r R N.B.M.M.B.B.B.B.B.B.B.B.B.B.B.B.B.B.B.B.B.B.B.B.B.B.B.B.B.B.B.B.B.B.B.B.B.B.B.B.B.B.B.B.B.B.B.B.B.B.B.N.v.3 Z ~.W.W.U.L.",
"v A r u R Z.B.-.-.B.B.B.B.B.B.B.B.B.B.B.B.B.B.B.9.6.4.5.9.B.B.B.B.B.B.B.B.B.B.B.B.B.B.B.B.B.B.B.B.B.B.B.B.N.N.N.D.B 2 !.W r V A b ",
"v A r u R N.B.B.B.B.B.B.B.B.B.B.B.B.B.B.9.7.5.4.3.3.3.3.3.4.7.B.B.B.B.B.B.B.B.B.B.B.B.B.B.B.B.B.B.B.N.N.C.C.D.D.^ @ Q.v.R r V A b ",
"v A r u R N.B.B.B.B.B.B.B.B.B.B.9.7.5.4.3.3.3.3.3.3.3.3.3.3.3.>.4.6.B.B.B.B.B.B.B.B.B.B.B.B.B.B.N.1.*.@.E S w 5 + h.m.C._ r V B b ",
"v A r u R N.Z.B.B.B.B.B.9.5.4.4.3.3.3.3.3.3.3.3.3.3.3.3.3.3.3.3.3.3.3.5.9.9.B.B.B.B.B.B.B.B.B.B.B.N.C.c.c.x.z.f.4 N v.N._ r V B b ",
"v A r r R B.B.B.9.7.4.4.3.3.3.3.3.:.3.2.2.2.2.3.3.3.3.3.3.2.2.2.2.2.3.3.3.4.5.9.B.B.B.B.B.B.B.B.B.N.C.C.D.D.v.m.W.+ %.C.T r V B b ",
"v A r r R 6.4.3.3.:.2.2.2.3.4.4. .:.3.3.3.3.3.3.3.3.3.3.3.3.3.3.3.3.3.3.3.3.3.3.4.5.9.B.B.B.B.B.B.B.B.B.B.B.B.N.D.g.: c.T u r B b ",
"v A r r L <.3.3.3.3.3.3.3.4.o.y 6.3.3.3.3.3.3.3.3.3.3.3.3.3.3.3.3.3.3.:.:.3.3.3.3.4.4.5.7.B.B.B.B.B.B.B.B.B.B.B.N.G.B ! E r V A b ",
"v A r r Y 1.<.<.<.<.1.1.1.T 0 B.<.3.3.3.3.3.3.2.2.3.3.3.3.3.3.3.3.3.3.3.3.3.3.3.=.o.<.3.3.4.5.9.9.B.B.B.B.B.B.B.Z.C.!.2 Z A A A b ",
"v A r V V T L u t q 0 9 > e A.<.3.3.3.3.2.3.3.2.2.3.3.3.3.3.3.2.2.3.3.3.3.2.:.4.y - / 3.2.3.3.3.>.6.9.B.B.B.B.B.B.B.C.b.  @ < j b ",
"n A B < @ 3 8 e Y Q %.k B S.<.3.3.3.3.3.3.3.3.:.3.3.3.3.3.3.3.3.3.3.3.3.3.2.3.3.J - ` 3.2.3.3.3.3.:.3.4.4.4.4.5.7.7.8.A.G.~ & . i ",
"n 4 @ Z Q.^.J.J.S.F.v.A %.<.3.3.3.3.3.3.:.3.3.3.3.3.3.3.3.3.3.3.3.3.3.3.3.2.3.3.4.=.<.3.3.3.3.3.3.:.3.3.3.3.3.3.3.3.4.<.Y d.U.P.0.",
"i 1 m.h.Y <.<.3.,.<.1., j.<.3.3.3.3.:.:.2.2.3.3.3.3.3.2.2.3.3.3.3.3.3.3.3.3.3.3.3.3.3.:.3.3.3.3.3.3.3.3.:.3.3.3.3.3.3.<.H r A U u.",
"a.I.U V L 4.2.2.3.3.<.# l.3.2.3.3.:.:.3.3.3.3.3.3.3.3.2.2.3.3.3.3.2.2.3.3.3.3.:.2.2.2.3.3.:.3.3.3.3.3.3.3.3.3.3.3.2.3.4.J u V B b ",
"0.A r r L 4.3.3.3.4.*.= 1.3.2.3.3.2.3.4./ :.3.3.3.3.3.3.3.3.3.3.3.3.3.3.3.3.3.3.3.3.3.3.3.2.2.3.3.3.3.3.2.2.2.3.3.2.3.<.J r V A b ",
"v A r r L 4.3.2.3.<.| q 1.3.;.3.3.2.3.+.6 X.3.3.:.3.3.3.3.3.3.3.3.3.3.3.3.3.3.3.3.3.3.3.3.2.2.3.3.3.3.2.2.2.3.3.3.2.3.<.H r V A b ",
"v A r r L 4.3.2.3.<.' ' 1.3.2.3.3.2.3.3.3.3.3.3.3.3.3.3.3.3.3.3.3.3.3.3.3.:.3.3.3.3.3.3.3.3.3.3.3.3.3.3.3.3.3.3.3.2.3.<.J u V B b ",
"v A r r L 4.2.2.3.1.L *.<.3.2.3.3.:.2.3.3.3.3.3.3.3.3.3.3.3.3.3.3.3.3.3.3.3.:.2.2.3.3.3.3.3.3.3.3.3.3.3.3.3.3.3.3.2.3.4.y u V B b ",
"v A r r L 4.3.2.3.1.0 1.<.3.2.3.3.:.2.3.3.3.3.3.3.3.3.3.3.3.3.:.:.3.3.3.3.3.3.2.2.3.3.3.3.3.3.3.3.3.3.:.:.:.3.3.3.2.3.4.H u V B b ",
"v A r r L 4.3.3.<.$.= k.4.3.2.3.3.3.2.3.3.3.3.3.3.3.3.3.3.3.3.:.:.3.3.3.3.3.3.2.2.3.3.3.3.3.3.3.3.3.3.4.4.3.3.3.3.2.3.<.H u V B b ",
"v A r r H 3.3.<.' # ! 9 1.3.3.3.3.3.3.:.3.3.:.2.2.3.3.3.3.3.3.3.3.3.3.3.3.3.3.3.3.3.3.3.3.3.3.3.3.3.+.7 u 4.3.3.3.2.3.<.J u V A b ",
"v A r r L <.<.u # G.F.l.t 4.3.3.3.3.3.3.3.3.3.3.2.3.3.3.3.3.3.3.3.3.3.3.3.3.3.3.3.3.3.3.3.3.3.3.3.3. .- - 4.3.3.3.2.3.<.H u V A b ",
"v A r V Y j.9 : !.1.*.*.N.H | { {  ...X.3.3.3.3.3.2.2.2.2.3.3.3.3.3.3.3.3.3.3.3.3.3.3.3.3.3.3.:.3.3.3./ { 3.3.3.3.2.3.<.H u V A b ",
"v A A B A : w G.#.{ ) { { *.` { { { { ) {  .X.3.3.3.3.3.3.3.3.3.3.3.3.3.3.3.3.3.3.3.3.3.3.3.3.3.3.3.3.3.3.3.3.3.3.2.3.<.H u V A b ",
"s 1 $ X   ! F.} { { { { { { | { { { { { { { { {  .X.3.3.3.3.3.3.3.2.2.2.2.3.3.3.3.3.3.3.3.3.3.3.3.3.3.3.3.3.3.3.2.2.3.<.H u V A b ",
"s * U f.W.x.} { ) { { { { { { { { { { { { { { { ) { {  .X.3.3.3.3.3.3.3.3.3.3.3.3.2.2.3.3.3.3.3.3.3.3.3.2.3.3.3.3.2.3.<.H u V A b ",
"E.U.h.^ W } { { { { { { { { { { { { { { { { { { { { { { { )  .X.+.<.4.4.3.3.2.3.3.2.2.3.3.:.:.:.:.:.:.3.3.2.3.3.3.2.3.<.H u V A b ",
"v A r r T { { { { { { { { { { { { { { { { { { { { { { { { { { ) { ` 7 J <.3.3.3.3.3.2.3.3.3.3.3.3.3.3.3.3.3.3.3.:.+.X.O.H u V A b ",
"v A r r T { { { { { { { { { { { { { { { { { { { { { { { { { { { { r > - { O.+.3.3.3.3.3.3.3.3.3.3.3.+.X... . . .{ ) { { L u V A b ",
"v A r r T { { { { { { { { { { { { { { { { { { { { { { { { { { { { Q , q } { )  ...+.3.+.X.X. . . .) { { { { { { { { { { L u V A b ",
"v A r r T { { { { { { { { { { { { { { { { { { { { { { { { { { { { { { { { { { { ) { { { { { { { { { { { { { { { { ) { { L u V A b ",
"v A r r T { { { { { { { { { { { { { { { { { { { { { { { { { { { { { { { { { { { { { { { { { { { { { { { { { { { { { { { L u V A b ",
"v A r r L { { { { { { { { { { } t t } { { { { { { { { { { { { { { { { { { { { { { { { { { { { { { { { } } { { { { { { { H r V A b ",
"v A r r u { { { { { { { { { { } ; ; } { { { { { { { { { { { { { { { { { { { { { { { { { { { { { { { [ ; q { { { { { { | t r V A b ",
"v A r r r | { { { { { { { { { { ` ` { { { { { { { { { { { { { { { { { { { { { { { { { { { { { { { { { 7 K { { { { { { | r r V A b ",
"n B r r r R { { { { { { { { { { { { { { { { { { { { { { { { { { { { { { { { { { { { { { { { { { { { { { { { { { { { { R r r V B b ",
"F N r r r u | { { { { { { { { { { { { { { { { { { { { { { { { { { { { { { { [ L [ { { { { { { { { { { { { { { { { { | r r r V C G ",
"r.k V r r r u | { { { { { { { { { { { { { { { { { { { { { { { { { { { { { { { L t } { { { { { { { { { { { { { { { | u r r r V g y.",
"T.f V V r V r u } { { { { { { { { { { { { { { { { { { { { { { { { { { { { { { } 6 q } { { { { { { { { { { { { | } t r r r r B a R.",
"oXD k A r V r r r H ' } | | | | | | | | | | | | | | | | | | | | | | | | | { | | #.# V | | | | | | | | | | { ` u u r r r V V k G oX",
"@XR.d C V r r r r r r u u u u u u u u u u u u u u u u u u u u u u u u u u t u u r < @ V r u t u u t t r u r u r r r r r V C h }.@X",
"#XOXs.a N A V V e V V r r r r r r r r r r r r r r r r r r r r r r r r r r r r r V 5   N V r r r V V r r r r r r V V V A k d Y.OX#X",
"#X#XOXT.c f C A A V V V V V V V V V V V V V V V V V V V V V V V V V V V V V V V A C   4 A V V V A V V V V V V V V A N f v T.OX@X#X",
"#X$X#XOX Xi.v f g g g g j g g g g g g g g g g g g g g g g g g g g g g g g g g g j l o O l g g g g g g g g g g g g f v i. X@X#X#X#X",
"#X+X#X#X@XOXoX|.T.Y.Y.Y.Y.Y.Y.Y.Y.Y.Y.Y.Y.Y.Y.Y.Y.Y.Y.Y.Y.Y.Y.Y.Y.Y.Y.Y.Y.Y.Y.Y.Y.Y.p.t.Y.Y.Y.Y.Y.Y.Y.Y.Y.Y.Y.Y.T.|.oXOX@X#X#X#X#X"
};
